<svg xmlns="http://www.w3.org/2000/svg" width="25.315" height="32" viewBox="0 0 25.315 32"><defs><style>.a{fill:#d6c8b0;}.b{fill:#ffe09f;}.c{fill:#49b3db;}.d{fill:#0085b7;}.e{fill:#dbceba;}.f{fill:#ff525d;}.g{fill:#34abe0;}</style></defs><g transform="translate(-53.483)"><path class="a" d="M135.257,42.893V27.147H115.312v21.2" transform="translate(-57.965 -25.45)"/><path class="b" d="M106.57,15.746V0H86.625V21.2" transform="translate(-31.071)"/><path class="c" d="M78.8,203.875V191.935a2.3,2.3,0,0,0-2.3-2.3H66.254a2.3,2.3,0,0,1-2.142-1.46l-.453-1.154a2.3,2.3,0,0,0-2.142-1.46H55.784a2.3,2.3,0,0,0-2.3,2.3v16.014a2.087,2.087,0,0,0,2.087,2.087H76.71A2.087,2.087,0,0,0,78.8,203.875Z" transform="translate(0 -173.963)"/><path class="d" d="M54.846,203.874V187.86a2.3,2.3,0,0,1,2.3-2.3H55.784a2.3,2.3,0,0,0-2.3,2.3v16.014a2.087,2.087,0,0,0,2.087,2.087h1.363A2.087,2.087,0,0,1,54.846,203.874Z" transform="translate(0 -173.962)"/><circle class="e" cx="2.217" cy="2.217" r="2.217" transform="translate(58.412 2.797)"/><path class="a" d="M133.779,46.976a2.217,2.217,0,0,1,1.5-2.1,2.217,2.217,0,1,0,0,4.2A2.217,2.217,0,0,1,133.779,46.976Z" transform="translate(-73.936 -41.962)"/><path class="f" d="M132.347,117.912a2.217,2.217,0,1,1,4.433,0" transform="translate(-73.935 -108.464)"/><g transform="translate(65.248 2.92)"><path class="g" d="M249.328,47.739h-7.094a.511.511,0,1,1,0-1.022h7.094a.511.511,0,1,1,0,1.022Z" transform="translate(-241.723 -46.717)"/><path class="g" d="M312.069,207.851h-2.911a.511.511,0,0,1,0-1.022h2.911a.511.511,0,1,1,0,1.022Z" transform="translate(-304.464 -196.822)"/><path class="g" d="M249.328,167.824h-7.094a.511.511,0,1,1,0-1.022h7.094a.511.511,0,1,1,0,1.022Z" transform="translate(-241.723 -159.297)"/><path class="g" d="M249.328,87.767h-7.094a.511.511,0,1,1,0-1.022h7.094a.511.511,0,1,1,0,1.022Z" transform="translate(-241.723 -84.243)"/><path class="g" d="M249.328,127.8h-7.094a.511.511,0,1,1,0-1.022h7.094a.511.511,0,1,1,0,1.022Z" transform="translate(-241.723 -121.77)"/></g></g></svg>