<svg xmlns="http://www.w3.org/2000/svg" width="32" height="32" viewBox="0 0 32 32"><defs><style>.a{fill:#6e61c5;}</style></defs><g transform="translate(-1 -1)"><path class="a" d="M1,61H33v1.032H1Z" transform="translate(0 -29.032)"/><path class="a" d="M24.171,4.57A12.928,12.928,0,0,1,36.125,7.275L34.894,8.506l5.848,1.462L39.28,4.119l-.963.963A16.022,16.022,0,0,0,23.379,1.575l-.379.1V4.637l1.057-.05Zm-.139-2.1a14.985,14.985,0,0,1,13.942,3.7l.365.348.381-.381.6,2.41-2.41-.6.7-.7-.385-.364A13.957,13.957,0,0,0,24.032,3.537Z" transform="translate(-10.645)"/><path class="a" d="M1.575,23.989l.1.379H4.637l-.05-1.057L4.569,23.2A12.933,12.933,0,0,1,7.275,11.242l1.231,1.231L9.967,6.626,4.119,8.088l.963.963A16.022,16.022,0,0,0,1.575,23.989Zm4.6-14.6.348-.365-.381-.381,2.41-.6-.6,2.41-.7-.7-.364.385A13.958,13.958,0,0,0,3.537,23.335H2.471a14.985,14.985,0,0,1,3.7-13.942Z" transform="translate(0 -2.722)"/><path class="a" d="M51.005,21.057l.019.115a12.929,12.929,0,0,1-2.705,11.954l-1.231-1.231-1.462,5.848,5.848-1.462-.963-.963a16.022,16.022,0,0,0,3.508-14.938l-.1-.379H50.956Zm2.117-.024a14.985,14.985,0,0,1-3.7,13.942l-.348.365.381.381-2.41.6.6-2.41.7.7.364-.385a13.958,13.958,0,0,0,3.346-13.195Z" transform="translate(-21.593 -9.194)"/><path class="a" d="M22,39h1.032v1.032H22Z" transform="translate(-10.161 -18.387)"/><path class="a" d="M14,39h1.032v1.032H14Z" transform="translate(-6.29 -18.387)"/><path class="a" d="M18,39h1.032v1.032H18Z" transform="translate(-8.226 -18.387)"/><path class="a" d="M18,43h1.032v1.032H18Z" transform="translate(-8.226 -20.323)"/><path class="a" d="M14,43h1.032v1.032H14Z" transform="translate(-6.29 -20.323)"/><path class="a" d="M22,43h1.032v1.032H22Z" transform="translate(-10.161 -20.323)"/><path class="a" d="M18,47h1.032v1.032H18Z" transform="translate(-8.226 -22.258)"/><path class="a" d="M22,47h1.032v1.032H22Z" transform="translate(-10.161 -22.258)"/><path class="a" d="M14,47h1.032v1.032H14Z" transform="translate(-6.29 -22.258)"/><path class="a" d="M14,51h1.032v1.032H14Z" transform="translate(-6.29 -24.194)"/><path class="a" d="M22,51h1.032v1.032H22Z" transform="translate(-10.161 -24.194)"/><path class="a" d="M18,51h1.032v1.032H18Z" transform="translate(-8.226 -24.194)"/><path class="a" d="M16,31h1.032v1.032H16Z" transform="translate(-7.258 -14.516)"/><path class="a" d="M24,31h1.032v1.032H24Z" transform="translate(-11.129 -14.516)"/><path class="a" d="M20,31h1.032v1.032H20Z" transform="translate(-9.194 -14.516)"/><path class="a" d="M28,31h1.032v1.032H28Z" transform="translate(-13.065 -14.516)"/><path class="a" d="M24,27h1.032v1.032H24Z" transform="translate(-11.129 -12.581)"/><path class="a" d="M28,27h1.032v1.032H28Z" transform="translate(-13.065 -12.581)"/><path class="a" d="M20,27h1.032v1.032H20Z" transform="translate(-9.194 -12.581)"/><path class="a" d="M16,27h1.032v1.032H16Z" transform="translate(-7.258 -12.581)"/><path class="a" d="M16,23h1.032v1.032H16Z" transform="translate(-7.258 -10.645)"/><path class="a" d="M24,23h1.032v1.032H24Z" transform="translate(-11.129 -10.645)"/><path class="a" d="M20,23h1.032v1.032H20Z" transform="translate(-9.194 -10.645)"/><path class="a" d="M28,23h1.032v1.032H28Z" transform="translate(-13.065 -10.645)"/><path class="a" d="M23.194,31.387h1.548a3.618,3.618,0,0,0,3.613-3.613v-.516H25.774a3.6,3.6,0,0,0-2.581,1.09V26.226h1.548a3.618,3.618,0,0,0,3.613-3.613V22.1H25.774a3.6,3.6,0,0,0-2.609,1.12,3.617,3.617,0,0,0-3.585-3.185H18.032V19H6.677v8.258H5.645V37.581H1v1.032H33V37.581H23.194Zm2.581-3.1h1.5a2.585,2.585,0,0,1-2.529,2.065h-1.5A2.585,2.585,0,0,1,25.774,28.29Zm0-5.161h1.5a2.585,2.585,0,0,1-2.529,2.065h-1.5A2.585,2.585,0,0,1,25.774,23.129ZM22.161,37.581H18.032V28.233a3.6,3.6,0,0,0,2.581,1.09h1.548v8.258ZM18.084,26.226h1.5a2.585,2.585,0,0,1,2.529,2.065h-1.5A2.585,2.585,0,0,1,18.084,26.226Zm1.5-5.161a2.585,2.585,0,0,1,2.529,2.065h-1.5a2.585,2.585,0,0,1-2.529-2.065Zm1.032,3.1h1.548v2.122a3.6,3.6,0,0,0-2.581-1.09H18.032V23.072A3.6,3.6,0,0,0,20.613,24.161ZM7.71,20.032H17V37.581H14.935V27.258H7.71ZM6.677,28.29H13.9v9.29H6.677Z" transform="translate(0 -8.71)"/></g></svg>