<svg xmlns="http://www.w3.org/2000/svg" width="15.918" height="15.919" viewBox="0 0 15.918 15.919">
  <g id="cancel" transform="translate(0.2 0.2)">
    <g id="Group_5092" data-name="Group 5092">
      <path id="Path_8899" data-name="Path 8899" d="M13.246,2.273A7.759,7.759,0,1,0,2.273,13.246,7.759,7.759,0,1,0,13.246,2.273Zm-.624,10.349A6.877,6.877,0,0,1,2.9,2.9a6.877,6.877,0,1,1,9.725,9.725Z" transform="translate(0 0)" fill="#e67e15" stroke="#e67e15" stroke-width="0.4"/>
      <path id="Path_8900" data-name="Path 8900" d="M135.893,129.055a.44.44,0,0,0-.624,0l-2.8,2.8-2.8-2.8a.441.441,0,0,0-.624.624l2.8,2.8-2.8,2.8a.443.443,0,0,0,.31.754.43.43,0,0,0,.31-.131l2.8-2.8,2.8,2.8a.444.444,0,0,0,.31.131.425.425,0,0,0,.31-.131.44.44,0,0,0,0-.624l-2.789-2.8,2.8-2.8A.44.44,0,0,0,135.893,129.055Z" transform="translate(-124.715 -124.715)" fill="#e67e15" stroke="#e67e15" stroke-width="0.4"/>
    </g>
  </g>
</svg>
