<svg xmlns="http://www.w3.org/2000/svg" width="15.15" height="15.15" viewBox="0 0 15.15 15.15">
  <g id="Layer_20" data-name="Layer 20" transform="translate(-1 -1)">
    <path id="Path_44114" data-name="Path 44114" d="M13.03,16.06a3.03,3.03,0,1,1,3.03-3.03A3.03,3.03,0,0,1,13.03,16.06Zm0-5.05a2.02,2.02,0,1,0,2.02,2.02A2.02,2.02,0,0,0,13.03,11.01Z" transform="translate(-4.455 -4.455)" fill="#e9ecf7"/>
    <path id="Path_44115" data-name="Path 44115" d="M14.07,26.537H9.02A2.02,2.02,0,0,1,7,24.517V23.229a.505.505,0,0,1,.318-.465l1.838-.737a.505.505,0,1,1,.369.939l-1.515.606v.944a1.01,1.01,0,0,0,1.01,1.01h5.05a1.01,1.01,0,0,0,1.01-1.01v-.944l-1.515-.606a.505.505,0,1,1,.374-.939l1.838.737a.505.505,0,0,1,.318.465v1.288a2.02,2.02,0,0,1-2.025,2.02Z" transform="translate(-2.97 -10.387)" fill="#e9ecf7"/>
    <path id="Path_44116" data-name="Path 44116" d="M6.525,6.05A2.525,2.525,0,1,1,9.05,3.525,2.525,2.525,0,0,1,6.525,6.05Zm0-4.04A1.515,1.515,0,1,0,8.04,3.525,1.515,1.515,0,0,0,6.525,2.01Z" transform="translate(-1.485)" fill="#e9ecf7"/>
    <path id="Path_44117" data-name="Path 44117" d="M4.535,15.43H3.02A2.02,2.02,0,0,1,1,13.41v-.884a.505.505,0,0,1,.318-.47l1.611-.631a.5.5,0,1,1,.369.929l-1.288.515v.54a1.01,1.01,0,0,0,1.01,1.01H4.535a.505.505,0,1,1,0,1.01Z" transform="translate(0 -5.143)" fill="#e9ecf7"/>
    <path id="Path_44118" data-name="Path 44118" d="M20.525,6.05A2.525,2.525,0,1,1,23.05,3.525,2.525,2.525,0,0,1,20.525,6.05Zm0-4.04A1.515,1.515,0,1,0,22.04,3.525,1.515,1.515,0,0,0,20.525,2.01Z" transform="translate(-8.415)" fill="#e9ecf7"/>
    <path id="Path_44119" data-name="Path 44119" d="M25.02,15.427H23.505a.505.505,0,0,1,0-1.01H25.02a1.01,1.01,0,0,0,1.01-1.01v-.54l-1.288-.505a.507.507,0,0,1,.369-.944l1.611.631a.505.505,0,0,1,.318.47V13.4a2.02,2.02,0,0,1-2.02,2.025Z" transform="translate(-10.89 -5.14)" fill="#e9ecf7"/>
  </g>
</svg>
