<svg xmlns="http://www.w3.org/2000/svg" viewBox="0 0 1024 1024" width="1024" height="1024">
	<defs>
		<clipPath clipPathUnits="userSpaceOnUse" id="cp1">
			<path d="M0 0L1024 0L1024 1024L0 1024L0 0Z" />
		</clipPath>
		<linearGradient id="grd1" gradientUnits="userSpaceOnUse"  x1="1024" y1="853.333" x2="0" y2="853.333">
			<stop offset="0" stop-color="#007482"  />
			<stop offset="1" stop-color="#059092"  />
		</linearGradient>
	</defs>
	<style>
		tspan { white-space:pre }
		.shp0 { fill: url(#grd1) } 
		.shp1 { fill: none;stroke: #07727f;stroke-linecap:round;stroke-width: 6 } 
	</style>
	<g id="Clip-Path: best_practices" clip-path="url(#cp1)">
		<g id="best_practices">
			<path id="Icon_material-computer" fill-rule="evenodd" class="shp0" d="M1024 768L1024 853.33L0 853.33L0 768L170.67 768C159.47 767.97 148.39 765.74 138.05 761.44C127.71 757.14 118.32 750.85 110.4 742.93C102.48 735.02 96.2 725.62 91.9 715.28C87.6 704.95 85.37 693.86 85.33 682.67L85.33 256C85.37 244.8 87.6 233.72 91.9 223.38C96.2 213.04 102.48 203.65 110.4 195.73C118.32 187.82 127.71 181.53 138.05 177.23C148.39 172.93 159.47 170.7 170.67 170.67L853.33 170.67C864.53 170.7 875.61 172.93 885.95 177.23C896.29 181.53 905.68 187.82 913.6 195.73C921.52 203.65 927.8 213.04 932.1 223.38C936.4 233.72 938.63 244.8 938.67 256L938.24 682.67C938.24 729.6 900.27 768 853.33 768L1024 768ZM170.67 682.67L853.33 682.67L853.33 256L170.67 256L170.67 682.67Z" />
			<path id="Path_5" class="shp1" d="M272.04 337.89L739.19 337.89" />
			<path id="Path_6" class="shp1" d="M272.04 410.89L739.19 410.89" />
			<path id="Path_7" class="shp1" d="M272.04 483.89L739.19 483.89" />
			<path id="Path_8" class="shp1" d="M272.04 556.89L739.19 556.89" />
			<path id="Path_9" class="shp1" d="M272.04 629.89L739.19 629.89" />
		</g>
	</g>
</svg>