<svg xmlns="http://www.w3.org/2000/svg" viewBox="0 0 1024 1024" width="1024" height="1024">
	<defs>
		<clipPath clipPathUnits="userSpaceOnUse" id="cp1">
			<path d="M0 0L1024 0L1024 1024L0 1024L0 0Z" />
		</clipPath>
	</defs>
	<style>
		tspan { white-space:pre }
		.shp0 { fill: none;stroke: #ffffff;stroke-width: 50 } 
	</style>
	<g id="Clip-Path: grant_administration_1" clip-path="url(#cp1)">
		<g id="grant_administration_1">
			<path id="Icon_awesome-user-cog" fill-rule="evenodd" class="shp0" d="M1018.19 723.19C1019.32 723.85 1020.33 724.71 1021.18 725.71C1022.03 726.71 1022.71 727.85 1023.18 729.07C1023.66 730.3 1023.93 731.59 1023.97 732.9C1024.02 734.22 1023.85 735.53 1023.47 736.79C1020.82 745.3 1017.7 753.66 1014.12 761.83C1010.54 770 1006.5 777.96 1002.04 785.68C997.57 793.4 992.68 800.87 987.39 808.04C982.09 815.22 976.4 822.09 970.34 828.64C969.45 829.6 968.4 830.41 967.24 831.03C966.08 831.65 964.83 832.07 963.53 832.27C962.23 832.47 960.91 832.46 959.62 832.22C958.32 831.98 957.08 831.53 955.94 830.88L914.66 807.03C910.31 810.74 905.79 814.25 901.12 817.54C896.46 820.84 891.64 823.92 886.69 826.78C881.74 829.63 876.67 832.26 871.48 834.66C866.29 837.05 860.99 839.21 855.61 841.12L855.61 888.8C855.61 890.11 855.38 891.42 854.95 892.66C854.51 893.9 853.87 895.06 853.04 896.08C852.22 897.11 851.23 897.99 850.11 898.68C849 899.38 847.77 899.88 846.49 900.16C837.8 902.11 829.01 903.59 820.17 904.57C811.32 905.55 802.42 906.04 793.52 906.04C784.62 906.04 775.72 905.55 766.88 904.57C758.03 903.59 749.24 902.11 740.56 900.16C739.27 899.88 738.05 899.38 736.93 898.68C735.81 897.99 734.82 897.11 734 896.08C733.18 895.06 732.53 893.9 732.1 892.66C731.66 891.42 731.44 890.11 731.44 888.8L731.44 841.12C726.05 839.2 720.76 837.05 715.57 834.65C710.38 832.26 705.3 829.63 700.35 826.77C695.4 823.92 690.59 820.84 685.92 817.54C681.25 814.25 676.74 810.74 672.39 807.03L631.11 830.88C629.96 831.53 628.72 831.98 627.43 832.22C626.14 832.46 624.81 832.48 623.51 832.28C622.21 832.08 620.96 831.66 619.8 831.04C618.64 830.42 617.59 829.6 616.71 828.63C610.65 822.09 604.97 815.21 599.68 808.03C594.39 800.85 589.5 793.39 585.03 785.67C580.57 777.95 576.53 769.99 572.95 761.82C569.37 753.65 566.24 745.3 563.58 736.78C563.18 735.53 562.99 734.22 563.03 732.9C563.07 731.58 563.33 730.28 563.81 729.05C564.29 727.82 564.97 726.68 565.83 725.68C566.69 724.68 567.72 723.84 568.86 723.18L610.15 699.34C609.11 693.72 608.33 688.06 607.81 682.37C607.29 676.68 607.03 670.97 607.03 665.26C607.03 659.54 607.29 653.83 607.81 648.14C608.33 642.46 609.11 636.79 610.15 631.17L568.86 607.33C567.73 606.66 566.72 605.81 565.87 604.81C565.02 603.81 564.34 602.67 563.86 601.45C563.39 600.22 563.12 598.93 563.07 597.61C563.02 596.3 563.2 594.99 563.58 593.73C566.23 585.22 569.35 576.85 572.93 568.69C576.51 560.52 580.54 552.55 585.01 544.83C589.47 537.12 594.36 529.65 599.66 522.47C604.96 515.3 610.65 508.42 616.71 501.88C617.6 500.91 618.64 500.1 619.8 499.49C620.96 498.87 622.22 498.45 623.52 498.25C624.81 498.04 626.14 498.06 627.43 498.3C628.72 498.54 629.97 498.99 631.11 499.64L672.39 523.48C676.74 519.78 681.25 516.27 685.92 512.97C690.59 509.68 695.41 506.6 700.35 503.74C705.3 500.88 710.38 498.26 715.57 495.86C720.76 493.47 726.05 491.31 731.44 489.4L731.44 441.72C731.44 440.4 731.66 439.1 732.1 437.86C732.54 436.62 733.18 435.46 734 434.43C734.83 433.41 735.82 432.53 736.93 431.84C738.05 431.14 739.27 430.64 740.56 430.36C749.24 428.4 758.03 426.93 766.88 425.95C775.73 424.97 784.62 424.47 793.52 424.47C802.43 424.47 811.32 424.97 820.17 425.95C829.02 426.93 837.8 428.4 846.49 430.36C847.77 430.64 849 431.14 850.11 431.84C851.23 432.53 852.22 433.41 853.04 434.43C853.87 435.46 854.51 436.62 854.95 437.86C855.38 439.1 855.61 440.4 855.61 441.72L855.61 489.4C860.99 491.31 866.29 493.47 871.48 495.86C876.67 498.26 881.74 500.89 886.69 503.74C891.64 506.6 896.46 509.68 901.12 512.98C905.79 516.27 910.31 519.78 914.65 523.49L955.94 499.64C957.08 498.99 958.32 498.53 959.62 498.29C960.91 498.06 962.23 498.04 963.53 498.24C964.83 498.44 966.09 498.86 967.25 499.48C968.4 500.1 969.45 500.91 970.34 501.88C976.4 508.43 982.09 515.3 987.39 522.48C992.68 529.65 997.57 537.12 1002.04 544.84C1006.5 552.56 1010.54 560.52 1014.11 568.69C1017.69 576.86 1020.82 585.22 1023.46 593.73C1023.87 594.99 1024.05 596.3 1024.01 597.62C1023.98 598.94 1023.71 600.24 1023.23 601.47C1022.76 602.7 1022.07 603.84 1021.21 604.83C1020.35 605.83 1019.33 606.68 1018.18 607.33L976.9 631.18C977.94 636.79 978.72 642.46 979.24 648.15C979.76 653.84 980.02 659.55 980.02 665.26C980.02 670.97 979.76 676.68 979.24 682.37C978.72 688.06 977.94 693.72 976.9 699.34L1018.19 723.19ZM793.68 742.87C803.87 742.86 813.96 740.84 823.37 736.94C832.78 733.04 841.33 727.32 848.54 720.12C855.74 712.91 861.46 704.36 865.36 694.95C869.27 685.54 871.28 675.45 871.29 665.26C871.29 633.87 852.38 605.57 823.38 593.56C794.38 581.55 761 588.19 738.81 610.38C716.61 632.58 709.97 665.96 721.98 694.96C734 723.96 762.29 742.87 793.68 742.87ZM153.62 306.82C153.62 193.69 245.31 102 358.44 102C471.57 102 563.26 193.69 563.26 306.82C563.26 419.95 471.57 511.64 358.44 511.64C245.31 511.64 153.62 419.95 153.62 306.82ZM680.39 888.8C680.41 890.41 680.5 892.01 680.64 893.6C680.79 895.2 680.99 896.79 681.26 898.37C681.53 899.95 681.86 901.52 682.25 903.07C682.64 904.63 683.08 906.17 683.59 907.69C680.42 909.88 677.08 911.83 673.61 913.52C670.14 915.22 666.55 916.64 662.86 917.79C659.18 918.95 655.41 919.82 651.6 920.4C647.78 920.99 643.93 921.28 640.07 921.29L76.81 921.29C66.72 921.28 56.74 919.29 47.42 915.43C38.1 911.57 29.63 905.92 22.5 898.78C15.37 891.65 9.71 883.19 5.85 873.87C1.99 864.55 0 854.56 0 844.48L0 777.91C0 659.18 96.33 562.85 215.06 562.85L241.79 562.85C260.02 571.26 279.11 577.67 298.73 581.97C318.34 586.28 338.36 588.45 358.44 588.45C378.52 588.45 398.54 586.28 418.15 581.97C437.77 577.67 456.86 571.26 475.09 562.85L501.81 562.85C508.05 562.85 513.97 564.29 520.05 564.77C518.45 569.41 516.37 574.05 514.93 578.69C512.8 585.45 511.83 592.53 512.07 599.62C512.31 606.71 513.75 613.71 516.34 620.31C518.93 626.92 522.62 633.03 527.26 638.4C531.9 643.76 537.42 648.3 543.58 651.82L556.22 659.18C556.06 663.34 556.06 667.5 556.22 671.66L543.58 679.02C537.42 682.54 531.91 687.08 527.27 692.45C522.63 697.81 518.94 703.93 516.36 710.53C513.77 717.13 512.33 724.13 512.08 731.22C511.84 738.3 512.81 745.38 514.93 752.15C518.14 762.47 521.93 772.6 526.26 782.51C530.6 792.41 535.48 802.06 540.88 811.42C546.29 820.78 552.21 829.83 558.62 838.54C565.04 847.24 571.92 855.58 579.26 863.52C584.07 868.72 589.72 873.07 595.98 876.38C602.24 879.7 609.01 881.93 616.01 882.98C623.02 884.04 630.15 883.9 637.1 882.57C644.06 881.25 650.74 878.75 656.87 875.2L669.51 867.84C673.03 869.92 676.71 872.16 680.39 874.08L680.39 888.8Z" />
		</g>
	</g>
</svg>