<svg xmlns="http://www.w3.org/2000/svg" viewBox="0 0 1024 1024" width="1024" height="1024">
	<defs>
		<clipPath clipPathUnits="userSpaceOnUse" id="cp1">
			<path d="M0 0L1024 0L1024 1024L0 1024L0 0Z" />
		</clipPath>
	</defs>
	<style>
		tspan { white-space:pre }
		.shp0 { fill: #ffffff } 
	</style>
	<g id="Clip-Path: performance_indicators_1" clip-path="url(#cp1)">
		<g id="performance_indicators_1">
			<path id="Icon_awesome-chart-line" fill-rule="evenodd" class="shp0" d="M992 768.5C996.2 768.5 1000.36 769.33 1004.25 770.93C1008.13 772.54 1011.66 774.9 1014.63 777.87C1017.6 780.84 1019.96 784.37 1021.57 788.25C1023.17 792.14 1024 796.3 1024 800.5L1024 864.5C1024 868.7 1023.17 872.86 1021.57 876.75C1019.96 880.63 1017.6 884.16 1014.63 887.13C1011.66 890.1 1008.13 892.46 1004.25 894.07C1000.36 895.67 996.2 896.5 992 896.5L64 896.5C55.6 896.5 47.27 894.84 39.51 891.63C31.75 888.41 24.69 883.7 18.75 877.75C12.8 871.81 8.09 864.75 4.87 856.99C1.66 849.23 0 840.9 0 832.5L0 160.5C0 156.3 0.83 152.14 2.43 148.25C4.04 144.37 6.4 140.84 9.37 137.87C12.34 134.9 15.87 132.54 19.75 130.93C23.64 129.33 27.8 128.5 32 128.5L96 128.5C100.2 128.5 104.36 129.33 108.25 130.93C112.13 132.54 115.66 134.9 118.63 137.87C121.6 140.84 123.96 144.37 125.57 148.25C127.17 152.14 128 156.3 128 160.5L128 768.5L992 768.5ZM928 192.5C932.2 192.5 936.36 193.32 940.25 194.93C944.13 196.54 947.66 198.9 950.63 201.87C953.6 204.84 955.95 208.37 957.56 212.25C959.16 216.14 959.99 220.3 959.98 224.5L959.98 460.6C959.98 503.36 908.28 524.78 878.04 494.54L813.24 429.74L621.24 621.74C615.3 627.68 608.24 632.4 600.48 635.62C592.72 638.83 584.39 640.49 575.99 640.49C567.59 640.49 559.26 638.83 551.5 635.62C543.74 632.4 536.68 627.68 530.74 621.74L384 475L291.88 567.14C288.91 570.11 285.38 572.47 281.5 574.08C277.61 575.69 273.45 576.52 269.25 576.52C265.05 576.52 260.89 575.69 257 574.08C253.12 572.47 249.59 570.11 246.62 567.14L201.38 521.9C198.41 518.93 196.05 515.4 194.44 511.52C192.83 507.63 192 503.47 192 499.27C192 495.07 192.83 490.91 194.44 487.02C196.05 483.14 198.41 479.61 201.38 476.64L338.76 339.26C344.7 333.32 351.76 328.6 359.52 325.38C367.28 322.17 375.61 320.51 384.01 320.51C392.41 320.51 400.74 322.17 408.5 325.38C416.26 328.6 423.32 333.32 429.26 339.26L576 486L722.74 339.24L657.94 274.44C627.7 244.2 649.12 192.5 691.88 192.5L928 192.5Z" />
		</g>
	</g>
</svg>