<svg xmlns="http://www.w3.org/2000/svg" viewBox="0 0 1024 1024" width="1024" height="1024">
	<defs>
		<clipPath clipPathUnits="userSpaceOnUse" id="cp1">
			<path d="M0 0L1024 0L1024 1024L0 1024L0 0Z" />
		</clipPath>
	</defs>
	<style>
		tspan { white-space:pre }
		.shp0 { fill: none;stroke: #ffffff;stroke-linecap:round;stroke-linejoin:round;stroke-width: 80 } 
		.shp1 { fill: #ffffff } 
		.shp2 { fill: none;stroke: #ffffff;stroke-linecap:round;stroke-width: 30 } 
	</style>
	<g id="Clip-Path: raise_market_financing_1" clip-path="url(#cp1)">
		<g id="raise_market_financing_1">
			<g id="Icon_feather-bar-chart">
				<path id="Path_1" class="shp0" d="M493.34 998L493.34 498.55" />
				<path id="Path_2" class="shp0" d="M827.68 998L827.68 43.78" />
				<path id="Path_3" class="shp0" d="M159 998L159 798.22" />
			</g>
			<path id="Icon_awesome-rupee-sign" class="shp1" d="M299.15 172.31C300.19 172.31 301.21 172.11 302.17 171.71C303.12 171.32 303.99 170.74 304.72 170.01C305.46 169.28 306.04 168.41 306.43 167.45C306.83 166.5 307.03 165.47 307.03 164.44L307.03 138.18C307.03 137.15 306.83 136.13 306.43 135.17C306.04 134.21 305.46 133.35 304.72 132.62C303.99 131.88 303.12 131.3 302.17 130.91C301.21 130.51 300.19 130.31 299.15 130.31L104.88 130.31C103.84 130.31 102.82 130.51 101.86 130.91C100.91 131.3 100.04 131.88 99.31 132.62C98.58 133.35 98 134.21 97.6 135.17C97.2 136.13 97 137.15 97 138.18L97 167.56C97 168.59 97.2 169.62 97.6 170.57C98 171.53 98.58 172.4 99.31 173.13C100.04 173.86 100.91 174.44 101.86 174.83C102.82 175.23 103.84 175.43 104.88 175.43L160.85 175.43C178.77 175.43 192.53 181.97 200.87 193.32L104.88 193.32C103.84 193.32 102.82 193.52 101.86 193.92C100.91 194.32 100.04 194.9 99.31 195.63C98.58 196.36 98 197.23 97.6 198.18C97.2 199.14 97 200.16 97 201.19L97 227.45C97 228.48 97.2 229.51 97.6 230.46C98 231.42 98.58 232.29 99.31 233.02C100.04 233.75 100.91 234.33 101.86 234.72C102.82 235.12 103.84 235.32 104.88 235.32L209.08 235.32C205 259.01 187.44 273.81 160.01 273.81L104.88 273.81C103.84 273.81 102.82 274.01 101.86 274.41C100.91 274.8 100.04 275.38 99.31 276.11C98.58 276.85 98 277.71 97.6 278.67C97.2 279.62 97 280.65 97 281.68L97 316.48C97 317.02 97.06 317.56 97.17 318.09C97.28 318.62 97.44 319.14 97.66 319.64C97.88 320.13 98.15 320.61 98.46 321.05C98.78 321.49 99.14 321.9 99.53 322.27L207.87 422.26C208.23 422.6 208.62 422.89 209.03 423.15C209.45 423.41 209.88 423.63 210.34 423.81C210.8 423.99 211.27 424.13 211.75 424.22C212.23 424.31 212.72 424.35 213.21 424.35L267.4 424.35C268.98 424.35 270.53 423.88 271.84 422.98C273.15 422.09 274.16 420.82 274.74 419.34C275.31 417.87 275.43 416.25 275.08 414.71C274.72 413.16 273.91 411.76 272.74 410.69L173.71 319.27C223.92 317.74 259.78 284.23 264.49 235.32L299.15 235.32C300.19 235.32 301.21 235.12 302.17 234.72C303.12 234.33 303.99 233.75 304.72 233.02C305.46 232.29 306.04 231.42 306.43 230.46C306.83 229.51 307.03 228.48 307.03 227.45L307.03 201.19C307.03 200.16 306.83 199.14 306.43 198.18C306.04 197.22 305.46 196.36 304.72 195.63C303.99 194.89 303.12 194.31 302.17 193.92C301.21 193.52 300.19 193.32 299.15 193.32L260.63 193.32C260.08 191.48 259.47 189.66 258.81 187.85C258.14 186.05 257.41 184.27 256.63 182.52C255.85 180.76 255.01 179.03 254.12 177.33C253.23 175.63 252.28 173.96 251.28 172.32L299.15 172.31Z" />
			<path id="Path_4" class="shp2" d="M97 646.9C125.68 624.27 661.3 69.78 661.3 69.78" />
		</g>
	</g>
</svg>