<svg xmlns="http://www.w3.org/2000/svg" viewBox="0 0 1024 1024" width="1024" height="1024">
	<defs>
		<clipPath clipPathUnits="userSpaceOnUse" id="cp1">
			<path d="M0 0L1024 0L1024 1024L0 1024L0 0Z" />
		</clipPath>
	</defs>
	<style>
		tspan { white-space:pre }
		.shp0 { fill: none;stroke: #ffffff;stroke-width: 62 } 
	</style>
	<g id="Clip-Path: skills_and_competencies_1" clip-path="url(#cp1)">
		<g id="skills_and_competencies_1">
			<path id="Icon_awesome-pencil-ruler" class="shp0" d="M240.94 489.71L489.7 240.99L408.14 159.43L294.14 273.44C292.78 274.81 291.16 275.89 289.38 276.62C287.61 277.36 285.7 277.74 283.78 277.74C281.85 277.74 279.95 277.36 278.17 276.62C276.39 275.89 274.77 274.81 273.42 273.44L252.69 252.72C251.33 251.36 250.25 249.75 249.51 247.97C248.78 246.19 248.4 244.29 248.4 242.36C248.4 240.44 248.78 238.53 249.51 236.75C250.25 234.98 251.33 233.36 252.69 232L366.7 117.99L304.52 55.79C299.08 50.35 292.62 46.03 285.5 43.08C278.39 40.13 270.76 38.62 263.06 38.62C255.36 38.62 247.74 40.13 240.63 43.08C233.51 46.03 227.05 50.35 221.61 55.79L55.78 221.61C50.34 227.06 46.02 233.52 43.08 240.64C40.13 247.75 38.62 255.38 38.62 263.07C38.62 270.77 40.13 278.4 43.08 285.51C46.02 292.63 50.34 299.09 55.79 304.53L240.94 489.71ZM958.99 273.81C967.23 265.57 973.77 255.78 978.23 245.01C982.69 234.24 984.99 222.69 984.99 211.03C984.99 199.37 982.69 187.83 978.23 177.06C973.77 166.29 967.23 156.5 958.99 148.25L875.35 64.61C867.1 56.37 857.31 49.83 846.53 45.36C835.76 40.9 824.21 38.6 812.55 38.6C800.89 38.6 789.34 40.9 778.56 45.36C767.79 49.83 758 56.37 749.75 64.61L664.69 149.66L873.93 358.9L958.99 273.81ZM622.86 191.5L73.88 740.4L39.2 939C38.12 945.21 38.55 951.58 40.45 957.59C42.35 963.6 45.67 969.06 50.13 973.51C54.59 977.97 60.05 981.28 66.06 983.18C72.07 985.07 78.45 985.49 84.66 984.4L283.27 949.57L832.1 400.73L622.86 191.5ZM967.82 719.1L905.64 656.92L791.63 770.92C790.27 772.29 788.66 773.37 786.88 774.1C785.1 774.84 783.2 775.22 781.27 775.22C779.35 775.22 777.44 774.84 775.67 774.1C773.89 773.37 772.27 772.29 770.91 770.92L750.19 750.21C748.83 748.84 747.76 747.23 747.02 745.45C746.29 743.67 745.91 741.77 745.91 739.84C745.91 737.92 746.29 736.02 747.02 734.24C747.76 732.46 748.83 730.85 750.19 729.48L864.2 615.47L782.61 533.88L533.86 782.61L719.08 967.82C724.53 973.26 730.99 977.58 738.11 980.53C745.22 983.47 752.84 984.99 760.54 984.99C768.24 984.99 775.87 983.47 782.98 980.53C790.1 977.58 796.56 973.26 802 967.82L967.82 802.02C973.27 796.57 977.59 790.11 980.54 782.99C983.48 775.88 985 768.26 985 760.56C985 752.86 983.48 745.23 980.54 738.12C977.59 731 973.27 724.54 967.82 719.1L967.82 719.1Z" />
		</g>
	</g>
</svg>