<svg xmlns="http://www.w3.org/2000/svg" width="12.258" height="13.62" viewBox="0 0 12.258 13.62">
  <path id="_2867888_download_icon" data-name="2867888_download_icon" d="M8.448,10.574V2.681a.681.681,0,1,1,1.362,0v7.893l2.247-2.247a.681.681,0,0,1,.953.967L9.606,12.7a.681.681,0,0,1-.953,0L5.247,9.294A.681.681,0,0,1,6.2,8.327ZM3,12.215a.681.681,0,1,1,1.362,0v2.043H13.9V12.215a.681.681,0,1,1,1.362,0v2.043A1.362,1.362,0,0,1,13.9,15.62H4.362A1.362,1.362,0,0,1,3,14.258Z" transform="translate(-3 -2)" fill="#e67e15"/>
</svg>
