<svg xmlns="http://www.w3.org/2000/svg" width="11.716" height="11.716" viewBox="0 0 11.716 11.716">
  <path id="Icon_awesome-expand-arrows-alt" data-name="Icon awesome-expand-arrows-alt" d="M11.416,10.2v2.854a.61.61,0,0,1-.612.612H7.95a.612.612,0,0,1-.433-1.045l.922-.922L5.708,8.967,2.975,11.7l.923.92a.612.612,0,0,1-.433,1.045H.612A.61.61,0,0,1,0,13.054V10.2a.612.612,0,0,1,1.045-.433l.922.922L4.7,7.958,1.967,5.224l-.922.925A.612.612,0,0,1,0,5.715V2.862A.61.61,0,0,1,.612,2.25H3.465A.612.612,0,0,1,3.9,3.295l-.922.922L5.708,6.949,8.44,4.215l-.923-.92A.612.612,0,0,1,7.95,2.25H10.8a.61.61,0,0,1,.612.612V5.715a.612.612,0,0,1-1.045.433l-.922-.922L6.715,7.958l2.734,2.734.922-.922A.611.611,0,0,1,11.416,10.2Z" transform="translate(0.15 -2.1)" fill="#e67e15" stroke="#fffdf6" stroke-width="0.3"/>
</svg>
