<svg xmlns="http://www.w3.org/2000/svg" width="9.851" height="11.901" viewBox="0 0 9.851 11.901"><defs><style>.a{fill:#5d5d5d;}</style></defs><g transform="translate(-159.551 -221.708)"><path class="a" d="M249.575,315.609a4.223,4.223,0,0,1-1.6.495,1.8,1.8,0,0,0-1.059.481,1.981,1.981,0,0,0-.308,2.129c.013.027.031.052.061.1.041-.051.075-.089.1-.13a9.128,9.128,0,0,1,1.6-1.741,1.373,1.373,0,0,1,.116-.092.231.231,0,1,1,.289.359c-.3.279-.607.545-.886.841a5.859,5.859,0,0,0-1.447,2.34c-.045.153-.072.312-.1.469s-.1.241-.26.232c-.139-.008-.214-.128-.193-.3a3.944,3.944,0,0,1,.444-1.364.253.253,0,0,0-.007-.286,2.4,2.4,0,0,1,.123-2.714,1.952,1.952,0,0,1,1.261-.741c.332-.067.666-.129,1-.2a1.838,1.838,0,0,0,.843-.441c.172-.154.355-.108.411.112a5.927,5.927,0,0,1,.11,2.964,2.226,2.226,0,0,1-2.251,1.753.373.373,0,0,1-.253-.134c-.035-.044,0-.165.033-.231.026-.045.111-.068.174-.079.182-.033.369-.041.548-.085a1.769,1.769,0,0,0,1.35-1.546,5.489,5.489,0,0,0-.062-2.1A.7.7,0,0,0,249.575,315.609Z" transform="translate(-83.568 -90.253)"/><path class="a" d="M290.78,273.709a3.173,3.173,0,0,0,1.517-.285,4.378,4.378,0,0,0,2.742-3.67,4.463,4.463,0,0,0-2.552-4.5c-.062-.028-.125-.054-.184-.088a.217.217,0,0,1-.114-.295.209.209,0,0,1,.29-.123,3.054,3.054,0,0,1,.485.227,4.856,4.856,0,0,1,2.557,4.4,4.912,4.912,0,0,1-4.039,4.771c-.278.048-.561.066-.872.1l.4.51a1.465,1.465,0,0,1,.1.131.228.228,0,0,1-.357.281q-.439-.526-.859-1.068a.213.213,0,0,1,.043-.314q.515-.423,1.037-.837a.212.212,0,0,1,.327.033.22.22,0,0,1-.043.328C291.105,273.448,290.942,273.577,290.78,273.709Z" transform="translate(-126.12 -41.642)"/><path class="a" d="M164.472,222.705c-.16-.2-.309-.385-.457-.572-.117-.147-.118-.286-.005-.374s.244-.062.365.086q.375.459.746.922c.158.2.149.3-.041.452q-.467.38-.938.755c-.151.12-.282.117-.372,0s-.053-.247.092-.365.3-.24.443-.36l-.01-.051c-.189.019-.38.025-.566.059a4.467,4.467,0,0,0-1.153,8.441c.033.016.069.028.1.044.166.08.233.208.163.338-.08.15-.207.155-.348.091a4.806,4.806,0,0,1-2.633-2.791,4.931,4.931,0,0,1,3.7-6.561C163.846,222.76,164.143,222.744,164.472,222.705Z"/></g></svg>