<svg xmlns="http://www.w3.org/2000/svg" width="11.635" height="12.674" viewBox="0 0 11.635 12.674"><defs><style>.a{fill:#5d5d5d;}</style></defs><g transform="translate(-97.547 -241.393)"><path class="a" d="M165.737,367.732a1.551,1.551,0,0,0,.349-.091c.915-.485,1.826-.978,2.738-1.469.1-.055.2-.114.3-.161a.548.548,0,0,1,.757.215.527.527,0,0,1-.245.745c-.537.3-1.083.593-1.624.888-.459.25-.921.5-1.374.757-.082.047-.129.157-.193.237a.84.84,0,0,0,.321-.021c.659-.342,1.31-.7,1.965-1.049a.516.516,0,0,1,.682.116.5.5,0,0,1,.061.638.741.741,0,0,1-.277.244q-2.075,1.11-4.156,2.209c-1.82.964-3.619-.54-3.952-2.063a4.075,4.075,0,0,1,.078-1.893c.252-1,.493-2.01.735-3.016a.593.593,0,0,1,.656-.527c.32.057.49.326.421.721-.083.473-.209.94-.28,1.415a.652.652,0,0,0,.109.5c.074.073.334.03.469-.041,1.453-.765,2.9-1.546,4.345-2.322a1.754,1.754,0,0,1,.369-.169.565.565,0,0,1,.65.316.532.532,0,0,1-.261.667c-.511.286-1.031.557-1.547.834s-1.017.539-1.518.822c-.091.051-.145.167-.216.253a.894.894,0,0,0,.33-.03c1.2-.637,2.4-1.284,3.6-1.928.092-.05.183-.1.278-.145a.545.545,0,1,1,.52.958c-.258.158-.53.294-.8.438q-1.52.817-3.041,1.633a3.172,3.172,0,0,0-.295.2Zm-1.824,2.916a5.011,5.011,0,0,0,.59-.176c.061-.027.085-.137.126-.21-.072-.007-.155-.042-.215-.018a.951.951,0,0,1-1.053-.159c-.045-.039-.139-.024-.21-.033.017.074.009.187.054.214C163.447,370.413,163.7,370.538,163.912,370.648Z" transform="translate(-60.94 -117.228)"/><path class="a" d="M100.414,345.488c-.175.691-.369,1.341-.5,2a3.448,3.448,0,0,0,.753,3.023c.033.039.058.083.116.166a2.3,2.3,0,0,1-1.277-.072,3,3,0,0,1-1.944-3.025,5.327,5.327,0,0,1,.388-1.471c.412-.982.884-1.939,1.34-2.9a.947.947,0,0,1,.275-.365.492.492,0,0,1,.639.031.522.522,0,0,1,.162.624c-.187.465-.4.922-.57,1.392a.762.762,0,0,0-.028.519c.1.209.321.127.5.077A.77.77,0,0,1,100.414,345.488Z" transform="translate(0 -97.313)"/><path class="a" d="M236.892,241.393a7.179,7.179,0,0,1,1.311,2.816,1.24,1.24,0,0,1-.768,1.258,1.274,1.274,0,0,1-1.441-.152,1.2,1.2,0,0,1-.489-1.382,18.5,18.5,0,0,1,.852-1.837c.119-.24.28-.46.422-.689Zm-.644,2.73a3.834,3.834,0,0,0,.2.438c.03.052.133.061.2.09a1.107,1.107,0,0,0,.01-.221c-.027-.178-.072-.353-.1-.531-.016-.107-.014-.217-.02-.325a2.746,2.746,0,0,0-.233.284A.939.939,0,0,0,236.247,244.123Z" transform="translate(-132.396)"/><path class="a" d="M208.775,375.412c.068-.333.124-.668.213-1,.02-.074.145-.142.235-.17.915-.286,1.831-.57,2.751-.838a1.783,1.783,0,0,1,.48-.006l.019.116-3.63,1.954Z" transform="translate(-106.798 -126.738)"/><path class="a" d="M215.393,529c-.21-.11-.465-.235-.708-.381-.045-.027-.038-.141-.054-.214.071.01.165-.006.21.033a.951.951,0,0,0,1.053.159c.06-.024.143.01.215.018-.041.072-.065.183-.126.21A5.014,5.014,0,0,1,215.393,529Z" transform="translate(-112.421 -275.584)"/><path class="a" d="M255.843,296.692a.94.94,0,0,1,.057-.265,2.742,2.742,0,0,1,.233-.284c.006.109,0,.218.02.325.027.178.072.353.1.531a1.108,1.108,0,0,1-.01.22c-.07-.029-.173-.038-.2-.09A3.834,3.834,0,0,1,255.843,296.692Z" transform="translate(-151.992 -52.569)"/></g></svg>