<svg xmlns="http://www.w3.org/2000/svg" width="10.19" height="10.19" viewBox="0 0 10.19 10.19"><defs><style>.a{fill:#5d5d5d;}</style></defs><path class="a" d="M9.128,5.093l.915-.9a.474.474,0,0,0-.212-.8L8.584,3.077l.351-1.234a.482.482,0,0,0-.59-.591L7.111,1.6,6.793.356a.478.478,0,0,0-.8-.212l-.9.922L4.2.144a.478.478,0,0,0-.8.212L3.079,1.6,1.845,1.252a.482.482,0,0,0-.59.591l.351,1.234L.359,3.395a.474.474,0,0,0-.212.8l.915.9-.915.9a.474.474,0,0,0,.212.8l1.247.318L1.255,8.344a.482.482,0,0,0,.59.591l1.234-.352L3.4,9.831a.473.473,0,0,0,.8.212l.9-.916.9.916a.475.475,0,0,0,.8-.212l.318-1.247,1.234.352a.482.482,0,0,0,.59-.591L8.584,7.11l1.247-.318a.474.474,0,0,0,.212-.8l-.915-.9Z" transform="translate(0 0)"/></svg>