<svg xmlns="http://www.w3.org/2000/svg" width="11.634" height="8.144" viewBox="0 0 11.634 8.144"><defs><style>.a{fill:#fff;}</style></defs><path class="a" d="M0,9.812a.582.582,0,0,0,.582.582H11.053a.582.582,0,0,0,.582-.582V4H0ZM8.144,6.031a.291.291,0,0,1,.291-.291H10.18a.291.291,0,0,1,.291.291v.582a.291.291,0,0,1-.291.291H8.435a.291.291,0,0,1-.291-.291Zm0,2.181a.145.145,0,0,1,.145-.145h2.036a.145.145,0,0,1,.145.145V8.5a.145.145,0,0,1-.145.145H8.289A.145.145,0,0,1,8.144,8.5ZM1.163,6.467a.145.145,0,0,1,.145-.145H6.835a.145.145,0,0,1,.145.145v.291a.145.145,0,0,1-.145.145H1.309a.145.145,0,0,1-.145-.145Zm0,1.745a.145.145,0,0,1,.145-.145h3.2a.145.145,0,0,1,.145.145V8.5a.145.145,0,0,1-.145.145h-3.2A.145.145,0,0,1,1.163,8.5ZM11.343,2.25H.291A.291.291,0,0,0,0,2.541v.873H11.634V2.541A.291.291,0,0,0,11.343,2.25Z" transform="translate(0 -2.25)"/></svg>