<svg xmlns="http://www.w3.org/2000/svg" width="10.435" height="7.304" viewBox="0 0 10.435 7.304"><defs><style>.a{fill:#5d5d5d;}</style></defs><path class="a" d="M10.565,11.152a1.3,1.3,0,1,0-1.3-1.3A1.3,1.3,0,0,0,10.565,11.152ZM6.652,10.63A1.565,1.565,0,1,0,5.087,9.065,1.559,1.559,0,0,0,6.652,10.63ZM10.565,12.2c-.955,0-2.87.48-2.87,1.435V14.8h5.739V13.63C13.435,12.676,11.52,12.2,10.565,12.2Zm-3.913-.522C5.436,11.674,3,12.284,3,13.5v1.3H6.652V13.63a2.056,2.056,0,0,1,1.236-1.81A6.408,6.408,0,0,0,6.652,11.674Z" transform="translate(-3 -7.5)"/></svg>