<svg xmlns="http://www.w3.org/2000/svg" width="11.015" height="8.812" viewBox="0 0 11.015 8.812"><defs><style>.a{fill:#5d5d5d;}</style></defs><path class="a" d="M11.015,4.544V4.268a.275.275,0,0,0-.275-.275H5.921V3.3H7.16a.551.551,0,0,0,.551-.551V.551A.551.551,0,0,0,7.16,0h-3.3A.551.551,0,0,0,3.3.551v2.2a.551.551,0,0,0,.551.551H5.094v.688H.275A.275.275,0,0,0,0,4.268v.275a.275.275,0,0,0,.275.275h1.79v.688H1.1a.551.551,0,0,0-.551.551v2.2a.551.551,0,0,0,.551.551H3.855a.551.551,0,0,0,.551-.551v-2.2a.551.551,0,0,0-.551-.551H2.891V4.819H8.124v.688H7.16a.551.551,0,0,0-.551.551v2.2a.551.551,0,0,0,.551.551H9.913a.551.551,0,0,0,.551-.551v-2.2a.551.551,0,0,0-.551-.551H8.95V4.819h1.79A.275.275,0,0,0,11.015,4.544ZM4.406,2.2V1.1h2.2V2.2ZM3.3,7.71H1.652v-1.1H3.3Zm6.058,0H7.71v-1.1H9.363Z"/></svg>