<svg width="32" height="21" viewBox="0 0 32 21" fill="none" xmlns="http://www.w3.org/2000/svg">
<path d="M19.6893 0.00984396C19.8803 0.0349527 20.0608 0.110467 20.2117 0.228376L31.592 8.97709C31.7191 9.07535 31.8219 9.20074 31.8926 9.34381C31.9633 9.48687 32 9.64386 32 9.80294C32 9.96201 31.9633 10.119 31.8926 10.2621C31.8219 10.4051 31.7191 10.5305 31.592 10.6288L20.2117 19.3775C20.0547 19.4977 19.8667 19.5724 19.6689 19.5931C19.471 19.6137 19.2713 19.5796 19.0922 19.4945C18.913 19.4094 18.7616 19.2767 18.6551 19.1114C18.5485 18.9461 18.491 18.7548 18.4891 18.559V15.0707C16.0836 15.0928 7.80993 15.5438 1.76211 20.7468C1.58589 20.8956 1.36516 20.9838 1.1334 20.998C0.901641 21.0122 0.671501 20.9516 0.477904 20.8254C0.284307 20.6992 0.137812 20.5144 0.0606469 20.2989C-0.0165185 20.0833 -0.0201417 19.8489 0.0503221 19.6312C3.03805 10.5731 12.0187 6.5634 18.4882 4.82331V1.05831C18.487 0.908666 18.5184 0.760496 18.5801 0.623734C18.6419 0.486973 18.7326 0.364776 18.8463 0.265338C18.9599 0.165899 19.0939 0.0915147 19.2391 0.0471673C19.3844 0.00281992 19.5376 -0.0104657 19.6885 0.00820165L19.6893 0.00984396ZM20.6226 3.20191V5.60824C20.6229 5.84115 20.5444 6.06755 20.3995 6.25174C20.2546 6.43594 20.0516 6.56747 19.8224 6.62561C14.5947 7.92781 7.51215 10.8432 3.77417 16.7747C8.61643 14.1439 14.0823 12.8268 19.612 12.9582C19.8852 12.9722 20.1426 13.0891 20.3308 13.2845C20.519 13.4799 20.6238 13.739 20.6234 14.0083V16.4031L29.2031 9.80867L20.6226 3.20191Z" fill="#E67E15"/>
</svg>
