<svg xmlns="http://www.w3.org/2000/svg" width="8.827" height="10.436" viewBox="0 0 8.827 10.436"><defs><style>.a{fill:#5d5d5d;}</style></defs><path class="a" d="M5.149,2.772V0H.552A.522.522,0,0,0,0,.489V9.946a.522.522,0,0,0,.552.489H8.275a.522.522,0,0,0,.552-.489V3.261H5.7A.525.525,0,0,1,5.149,2.772ZM6.62,7.582a.262.262,0,0,1-.276.245H2.482a.262.262,0,0,1-.276-.245V7.419a.262.262,0,0,1,.276-.245H6.344a.262.262,0,0,1,.276.245Zm0-1.3a.262.262,0,0,1-.276.245H2.482a.262.262,0,0,1-.276-.245V6.115a.262.262,0,0,1,.276-.245H6.344a.262.262,0,0,1,.276.245Zm0-1.467v.163a.262.262,0,0,1-.276.245H2.482a.262.262,0,0,1-.276-.245V4.81a.262.262,0,0,1,.276-.245H6.344A.262.262,0,0,1,6.62,4.81ZM8.827,2.485v.124H5.884V0h.14a.589.589,0,0,1,.391.143l2.25,2A.461.461,0,0,1,8.827,2.485Z"/></svg>