<svg xmlns="http://www.w3.org/2000/svg" width="38.857" height="48" viewBox="0 0 38.857 48"><defs><style>.a{fill:#e6b200;}</style></defs><g transform="translate(-52 -4)"><g transform="translate(52 4)"><path class="a" d="M71.429,4A19.451,19.451,0,0,0,52,23.429a22.742,22.742,0,0,0,2.992,10.61,47.34,47.34,0,0,0,6.44,9.007,70.317,70.317,0,0,0,9.311,8.726,1.143,1.143,0,0,0,1.371,0,70.308,70.308,0,0,0,9.311-8.726,47.332,47.332,0,0,0,6.44-9.007,22.74,22.74,0,0,0,2.992-10.609A19.451,19.451,0,0,0,71.429,4Zm8.316,37.5a71.111,71.111,0,0,1-8.316,7.909A71.113,71.113,0,0,1,63.113,41.5c-4.027-4.536-8.827-11.353-8.827-18.067a17.143,17.143,0,0,1,34.286,0C88.571,30.143,83.771,36.96,79.744,41.5Z" transform="translate(-52 -4)"/><path class="a" d="M126,76.668a14.849,14.849,0,1,0-11.147,5.046A14.825,14.825,0,0,0,126,76.668Zm-10.766-1.811h-.762V72.571h.762Zm1.143-4.571h-3.048a1.143,1.143,0,0,0-1.143,1.143v3.429H109.9v-16h9.9v16h-2.286V71.429A1.143,1.143,0,0,0,116.381,70.286Zm-11.214,4.571a12.536,12.536,0,0,1-2.6-5.333h5.048v5.333Zm16.928,0V69.524h5.048a12.536,12.536,0,0,1-2.6,5.333Zm-7.238-20.571a12.586,12.586,0,0,1,12.571,12.571c0,.128,0,.254-.006.381H122.1V57.714a1.143,1.143,0,0,0-1.143-1.143h-12.19a1.143,1.143,0,0,0-1.143,1.143v9.524h-5.327c0-.127-.006-.253-.006-.381A12.586,12.586,0,0,1,114.857,54.286Zm-7.22,22.857h14.439a12.545,12.545,0,0,1-14.439,0Z" transform="translate(-95.429 -47.429)"/><path class="a" d="M341.143,244A1.143,1.143,0,0,0,340,245.143v1.524a1.143,1.143,0,1,0,2.286,0v-1.524A1.143,1.143,0,0,0,341.143,244Z" transform="translate(-312.571 -221.143)"/><path class="a" d="M149.143,244A1.143,1.143,0,0,0,148,245.143v1.524a1.143,1.143,0,1,0,2.286,0v-1.524A1.143,1.143,0,0,0,149.143,244Z" transform="translate(-138.857 -221.143)"/><path class="a" d="M245.143,132A1.143,1.143,0,0,0,244,133.143v1.524a1.143,1.143,0,0,0,2.286,0v-1.524A1.143,1.143,0,0,0,245.143,132Z" transform="translate(-225.714 -119.81)"/><path class="a" d="M245.143,196A1.143,1.143,0,0,0,244,197.143v1.524a1.143,1.143,0,1,0,2.286,0v-1.524A1.143,1.143,0,0,0,245.143,196Z" transform="translate(-225.714 -177.714)"/><path class="a" d="M277.143,135.81a1.143,1.143,0,0,0,1.143-1.143v-1.524a1.143,1.143,0,0,0-2.286,0v1.524A1.143,1.143,0,0,0,277.143,135.81Z" transform="translate(-254.667 -119.81)"/><path class="a" d="M278.286,198.667v-1.524a1.143,1.143,0,0,0-2.286,0v1.524a1.143,1.143,0,1,0,2.286,0Z" transform="translate(-254.667 -177.714)"/><path class="a" d="M213.143,132A1.143,1.143,0,0,0,212,133.143v1.524a1.143,1.143,0,0,0,2.286,0v-1.524A1.143,1.143,0,0,0,213.143,132Z" transform="translate(-196.762 -119.81)"/><path class="a" d="M213.143,196A1.143,1.143,0,0,0,212,197.143v1.524a1.143,1.143,0,1,0,2.286,0v-1.524A1.143,1.143,0,0,0,213.143,196Z" transform="translate(-196.762 -177.714)"/></g></g></svg>