<svg xmlns="http://www.w3.org/2000/svg" width="21.754" height="21.053" viewBox="0 0 21.754 21.053"><defs><style>.a{fill:#fff;}</style></defs><g transform="translate(0 -0.125)"><path class="a" d="M1.754,19.072h9.123v-.7H1.754A1.053,1.053,0,0,1,.7,17.318V1.879A1.053,1.053,0,0,1,1.754.827H17.193a1.052,1.052,0,0,1,1.053,1.053v8.07h.7V1.879A1.756,1.756,0,0,0,17.193.125H1.754A1.757,1.757,0,0,0,0,1.879V17.318A1.757,1.757,0,0,0,1.754,19.072Zm0,0"/><path class="a" d="M62.344,62.469h.7v.7h-.7Zm0,0" transform="translate(-60.94 -60.94)"/><path class="a" d="M124.676,62.469h.7v.7h-.7Zm0,0" transform="translate(-121.869 -60.94)"/><path class="a" d="M187.016,62.469h.7v.7h-.7Zm0,0" transform="translate(-182.806 -60.94)"/><path class="a" d="M62.344,124.8h16.14v.7H62.344Zm0,0" transform="translate(-60.94 -121.869)"/><path class="a" d="M65.5,191.707l-.891.891a1.76,1.76,0,1,0,.5.5l.891-.891Zm-1.857,3.406a1.053,1.053,0,1,1,0-2.105,1.034,1.034,0,0,1,.451.105l-.7.7.5.5.7-.7a1.033,1.033,0,0,1,.105.451A1.052,1.052,0,0,1,63.638,195.113Zm0,0" transform="translate(-60.481 -187.269)"/><path class="a" d="M264.941,249.484h5.965v.7h-5.965Zm0,0" transform="translate(-258.976 -243.745)"/><path class="a" d="M264.941,311.82H267.4v.7h-2.456Zm0,0" transform="translate(-258.976 -304.677)"/><path class="a" d="M405.2,311.82h4.912v.7H405.2Zm0,0" transform="translate(-396.08 -304.677)"/><path class="a" d="M561.047,249.484h3.509v.7h-3.509Zm0,0" transform="translate(-548.416 -243.745)"/><path class="a" d="M65.5,378.723l-.891.891a1.76,1.76,0,1,0,.5.5l.891-.891Zm-1.857,3.406a1.053,1.053,0,0,1,0-2.105,1.035,1.035,0,0,1,.451.105l-.7.7.5.5.7-.7a1.033,1.033,0,0,1,.105.451A1.053,1.053,0,0,1,63.638,382.129Zm0,0" transform="translate(-60.481 -370.074)"/><path class="a" d="M264.941,436.492h5.965v.7h-5.965Zm0,0" transform="translate(-258.976 -426.543)"/><path class="a" d="M264.941,498.836H267.4v.7h-2.456Zm0,0" transform="translate(-258.976 -487.483)"/><path class="a" d="M405.2,498.836h2.807v.7H405.2Zm0,0" transform="translate(-396.08 -487.483)"/><path class="a" d="M561.047,436.492h1.4v.7h-1.4Zm0,0" transform="translate(-548.416 -426.543)"/><path class="a" d="M65.5,565.738l-.891.891a1.76,1.76,0,1,0,.5.5l.891-.891Zm-1.857,3.406a1.053,1.053,0,0,1,0-2.105,1.032,1.032,0,0,1,.451.105l-.7.7.5.5.7-.7a1.034,1.034,0,0,1,.105.451A1.053,1.053,0,0,1,63.638,569.144Zm0,0" transform="translate(-60.481 -552.879)"/><path class="a" d="M264.941,623.512H269.5v.7h-4.561Zm0,0" transform="translate(-258.976 -609.352)"/><path class="a" d="M264.941,685.852H267.4v.7h-2.456Zm0,0" transform="translate(-258.976 -670.288)"/><path class="a" d="M405.2,685.852h1.4v.7h-1.4Zm0,0" transform="translate(-396.08 -670.288)"/><path class="a" d="M503.974,478.19a5.263,5.263,0,1,0-5.263-5.263A5.263,5.263,0,0,0,503.974,478.19Zm0-9.825a4.561,4.561,0,1,1-4.562,4.561A4.562,4.562,0,0,1,503.974,468.366Zm0,0" transform="translate(-487.483 -457.013)"/><path class="a" d="M610.148,584.222l-.628.314.7,1.4a.35.35,0,0,0,.258.19.379.379,0,0,0,.054,0,.351.351,0,0,0,.248-.1l4.21-4.211-.5-.5-3.866,3.866Zm0,0" transform="translate(-595.797 -568.114)"/></g></svg>