<svg xmlns="http://www.w3.org/2000/svg" width="17.804" height="18" viewBox="0 0 17.804 18"><defs><style>.a{fill:#fff;}</style></defs><g transform="translate(-2.794 0)"><g transform="translate(2.794 0)"><path class="a" d="M66.3,181.506H59.554a.264.264,0,1,0,0,.527H66.3a.264.264,0,1,0,0-.527Z" transform="translate(-57.304 -175.125)"/><path class="a" d="M66.3,234.2H59.554a.264.264,0,1,0,0,.527H66.3a.264.264,0,1,0,0-.527Z" transform="translate(-57.304 -225.968)"/><path class="a" d="M66.3,286.9H59.554a.264.264,0,1,0,0,.527H66.3a.264.264,0,1,0,0-.527Z" transform="translate(-57.304 -276.811)"/><path class="a" d="M66.567,339.858a.264.264,0,0,0-.264-.264H59.554a.264.264,0,0,0,0,.527H66.3A.264.264,0,0,0,66.567,339.858Z" transform="translate(-57.304 -327.655)"/><path class="a" d="M59.554,416.821a.264.264,0,0,0,0,.527h3.383a.264.264,0,0,0,0-.527Z" transform="translate(-57.304 -402.167)"/><path class="a" d="M164.2,53.154V52.3a.592.592,0,0,0-.591-.591h-5.413a.592.592,0,0,0-.591.591v.855a.592.592,0,0,0,.591.591h.457a.264.264,0,1,0,0-.527h-.457a.064.064,0,0,1-.064-.064V52.3a.064.064,0,0,1,.064-.064h5.413a.064.064,0,0,1,.064.064v.855a.064.064,0,0,1-.064.064h-3.723a.264.264,0,1,0,0,.527h3.723A.592.592,0,0,0,164.2,53.154Z" transform="translate(-152.161 -49.889)"/><path class="a" d="M16.8,16.077a.264.264,0,0,0-.264.264V16.7a.778.778,0,0,1-.777.777H4.1a.778.778,0,0,1-.777-.777V4.023a.782.782,0,0,1,.019-.167h2.4a.91.91,0,0,0,.909-.909V.546A.782.782,0,0,1,6.817.527h8.945a.778.778,0,0,1,.777.777v3.51a.264.264,0,1,0,.527,0V1.3a1.306,1.306,0,0,0-1.3-1.3H6.817a1.3,1.3,0,0,0-.922.382L3.176,3.1a1.3,1.3,0,0,0-.382.922V16.7A1.306,1.306,0,0,0,4.1,18H15.762a1.306,1.306,0,0,0,1.3-1.3V16.34a.264.264,0,0,0-.264-.264ZM6.122.9V2.946a.382.382,0,0,1-.382.382H3.694Z" transform="translate(-2.794 0)"/><path class="a" d="M300.736,168.145a1.054,1.054,0,0,0-.515-1.586.524.524,0,0,1-.349-.48,1.054,1.054,0,0,0-1.349-.98.524.524,0,0,1-.564-.183,1.054,1.054,0,0,0-1.668,0,.524.524,0,0,1-.564.183,1.054,1.054,0,0,0-1.349.98.524.524,0,0,1-.349.48,1.054,1.054,0,0,0-.515,1.586.524.524,0,0,1,0,.593,1.054,1.054,0,0,0,.515,1.586.524.524,0,0,1,.349.48,1.054,1.054,0,0,0,.91,1.012v2.4a.56.56,0,0,0,.853.477l.967-.6a.028.028,0,0,1,.034,0l.967.6a.56.56,0,0,0,.853-.477v-2.4a1.054,1.054,0,0,0,.91-1.012.524.524,0,0,1,.349-.48,1.054,1.054,0,0,0,.515-1.586A.524.524,0,0,1,300.736,168.145Zm-2.351,6.1-.967-.6a.56.56,0,0,0-.587,0l-.967.6a.032.032,0,0,1-.049-.027v-2.45a.523.523,0,0,1,.476.2,1.054,1.054,0,0,0,1.668,0,.523.523,0,0,1,.476-.2v2.45A.032.032,0,0,1,298.385,174.245Zm1.915-5.209a.527.527,0,0,1-.258.793,1.048,1.048,0,0,0-.7.96.527.527,0,0,1-.674.49,1.048,1.048,0,0,0-1.129.367.527.527,0,0,1-.833,0,1.047,1.047,0,0,0-.831-.41,1.064,1.064,0,0,0-.3.043.525.525,0,0,1-.485-.1.519.519,0,0,1-.19-.389,1.048,1.048,0,0,0-.7-.96.527.527,0,0,1-.258-.793,1.048,1.048,0,0,0,0-1.187.527.527,0,0,1,.258-.793,1.048,1.048,0,0,0,.7-.96.527.527,0,0,1,.674-.49,1.048,1.048,0,0,0,1.129-.367.527.527,0,0,1,.833,0,1.048,1.048,0,0,0,1.129.367.527.527,0,0,1,.674.49,1.048,1.048,0,0,0,.7.96.527.527,0,0,1,.258.793A1.048,1.048,0,0,0,300.3,169.036Z" transform="translate(-283.116 -158.724)"/><path class="a" d="M340.624,213.583a2.21,2.21,0,1,0,2.21,2.21A2.212,2.212,0,0,0,340.624,213.583Zm0,3.892a1.682,1.682,0,1,1,1.682-1.682A1.684,1.684,0,0,1,340.624,217.475Z" transform="translate(-326.615 -206.074)"/></g></g></svg>