<svg xmlns="http://www.w3.org/2000/svg" width="27.234" height="27.234" viewBox="0 0 27.234 27.234">
  <path id="Icon_feather-menu" data-name="Icon feather-menu" d="M25.531,20.543h0L18.5,13.514,25.53,6.484h0a.726.726,0,0,0,0-1.024L22.21,2.14a.726.726,0,0,0-1.024,0h0L14.156,9.169,7.127,2.14h0a.726.726,0,0,0-1.024,0L2.782,5.46a.726.726,0,0,0,0,1.024h0l7.029,7.029L2.782,20.543h0a.726.726,0,0,0,0,1.024L6.1,24.888a.726.726,0,0,0,1.024,0h0l7.029-7.029,7.029,7.029h0a.726.726,0,0,0,1.024,0l3.321-3.321a.726.726,0,0,0,0-1.024Z" transform="translate(-0.539 0.104)" fill="#0f1f40" stroke="#f5f7ff" stroke-width="4"/>
</svg>
