<svg xmlns="http://www.w3.org/2000/svg" width="26.079" height="32" viewBox="0 0 26.079 32"><defs><style>.a{fill:#85ce64;}.b{fill:#85ccf8;}.c{fill:#75b3da;}.d{fill:#75bb61;}.e{fill:#9edefd;}</style></defs><g transform="translate(-45.301)"><path class="a" d="M56.294,10.017q-.144.571-.3,1.135c-.574,2.145-1.2,4.234-1.625,6.434h0q-.113.583-.207,1.178h0a24.508,24.508,0,0,0-.147,6.812q.076.647.193,1.318h0A29.939,29.939,0,0,0,55.6,32c-7.991-3.949-11.123-11.6-10.11-18.3.116-.765.461-2.7.673-3.422l2.092.513s4.1-8.2,9.143-10.795a30.774,30.774,0,0,1-1.1,10.012Z" transform="translate(0 -0.005)"/><path class="b" d="M219.8,29.375a7.248,7.248,0,0,1-2.972,1.479,7.433,7.433,0,0,1-9.056-6.823c-.487-8.85,4.154-14.548,3.51-24.031C220.722,6.547,227.631,22.942,219.8,29.375Z" transform="translate(-151.817)"/><path class="c" d="M216.825,30.854a7.433,7.433,0,0,1-9.056-6.823c-.487-8.85,4.154-14.548,3.51-24.031,1.537,3.85,3.008,12.672,1.831,18.652s.271,11.758,3.713,12.2Z" transform="translate(-151.817)"/><g transform="translate(48.035 6.497)"><path class="d" d="M93.317,251.582a10.952,10.952,0,0,1-2.723-2.408,15.775,15.775,0,0,1-3.451-8.219.49.49,0,1,1,.972-.126,14.823,14.823,0,0,0,3.2,7.678,11.622,11.622,0,0,0,1.81,1.757Q93.2,250.911,93.317,251.582Z" transform="translate(-87.139 -231.187)"/><path class="d" d="M136.931,187.6h0q-.113.583-.207,1.178a9.322,9.322,0,0,1-3.093-6.383.49.49,0,1,1,.98,0A8.08,8.08,0,0,0,136.931,187.6Z" transform="translate(-130.593 -176.514)"/><path class="d" d="M182.314,102.922q-.144.571-.3,1.135a6.23,6.23,0,0,1-1.885-4.161.49.49,0,1,1,.98,0A5,5,0,0,0,182.314,102.922Z" transform="translate(-174.054 -99.406)"/></g><ellipse class="e" cx="1.715" cy="2.843" rx="1.715" ry="2.843" transform="translate(66.293 18.554)"/></g></svg>