<svg xmlns="http://www.w3.org/2000/svg" width="32" height="27.564" viewBox="0 0 32 27.564"><defs><style>.a{fill:#cfdce5;}.b{fill:#bac6cc;}.c{fill:#ff6f52;}.d{fill:#e25749;}</style></defs><g transform="translate(0 -35.49)"><g transform="translate(1.071 36.077)"><path class="a" d="M47.521,219.4v3.642H40.007V219.4a2.465,2.465,0,0,0-2.462-2.462H33.776a6.55,6.55,0,0,1-10.924,0H17.138v-7.514h5.911a6.55,6.55,0,0,1,10.53,0h3.965A9.988,9.988,0,0,1,47.521,219.4Z" transform="translate(-17.138 -196.652)"/><path class="a" d="M166.1,47.724v-.98a1.862,1.862,0,0,1,1.862-1.862h0a1.862,1.862,0,0,1,1.862,1.862V55.21l-3.723,0V47.724Z" transform="translate(-156.794 -44.882)"/></g><g transform="translate(1.071 36.077)"><path class="b" d="M348.13,372.645v2.241h-2.025v-3.642a2.465,2.465,0,0,0-2.462-2.462A3.906,3.906,0,0,1,348.13,372.645Z" transform="translate(-323.236 -348.497)"/><path class="b" d="M24.88,213.326a6.552,6.552,0,0,1,4.991-6.362,6.55,6.55,0,0,0-7.956,7.777H17.134v2.2h5.715a6.55,6.55,0,0,0,7.022,2.746A6.552,6.552,0,0,1,24.88,213.326Z" transform="translate(-17.134 -196.657)"/><path class="b" d="M167.524,55.206V46.743a1.862,1.862,0,0,1,1.152-1.722,1.862,1.862,0,0,0-2.571,1.722v8.463l3.723,0h0Z" transform="translate(-156.795 -44.881)"/></g><path class="c" d="M30.132,63.907a3.515,3.515,0,0,0-1.66.29A16.28,16.28,0,0,1,21.9,65.658h-.343A16.281,16.281,0,0,1,14.986,64.2a3.518,3.518,0,1,0,.1,6.4,15.226,15.226,0,0,1,6.578-1.417h.14a15.226,15.226,0,0,1,6.578,1.417,3.519,3.519,0,1,0,1.755-6.687Z" transform="translate(-9.42 -26.633)"/><path class="d" d="M13.1,67.316a3.518,3.518,0,0,0,1.99,3.271l-.012.006a3.519,3.519,0,1,1-.1-6.4l.113.049A3.54,3.54,0,0,0,13.1,67.316Z" transform="translate(-9.419 -26.632)"/><path d="M36.072,245.263a10.574,10.574,0,0,0-6.363-3.536.587.587,0,1,0-.18,1.16,9.4,9.4,0,0,1,7.941,9.277v3.055H31.13v-3.055a3.053,3.053,0,0,0-3.049-3.049H24.312a.587.587,0,0,0-.489.263,5.963,5.963,0,0,1-9.945,0,.587.587,0,0,0-.489-.263H7.674a.587.587,0,1,0,0,1.174h5.408a7.137,7.137,0,0,0,11.537,0h3.462a1.877,1.877,0,0,1,1.875,1.875v3.642a.587.587,0,0,0,.587.587h7.514a.587.587,0,0,0,.587-.587v-3.642A10.555,10.555,0,0,0,36.072,245.263Z" transform="translate(-6.644 -193.341)"/><path d="M4.105,44.889a4.065,4.065,0,0,0,1.768-.4,13.759,13.759,0,0,1,3.88-1.178v2.735a7.178,7.178,0,0,0-3.1,2.214H1.03a.587.587,0,0,0,0,1.174H6.942a.587.587,0,0,0,.472-.237A5.963,5.963,0,0,1,17,49.2a.587.587,0,0,0,.472.237h3.208a.587.587,0,0,0,0-1.174h-2.92a7.178,7.178,0,0,0-3.108-2.217V44.492a.587.587,0,0,0-1.174,0v1.232a7.013,7.013,0,0,0-2.549,0V43.178q.625-.047,1.27-.048h.14a14.534,14.534,0,0,1,6.324,1.359,4.106,4.106,0,0,0,5.872-3.822,4.106,4.106,0,0,0-5.761-3.641,16.577,16.577,0,0,1-4.123,1.234v-.322a2.449,2.449,0,1,0-4.9,0v.3a16.636,16.636,0,0,1-3.991-1.214,4.13,4.13,0,0,0-1.936-.339A.587.587,0,1,0,3.9,37.86a2.913,2.913,0,0,1,1.383.242A16.813,16.813,0,0,0,12.1,39.612h.343A16.813,16.813,0,0,0,19.249,38.1a2.909,2.909,0,0,1,1.383-.242A2.95,2.95,0,0,1,23.361,40.7a2.932,2.932,0,0,1-4.192,2.73,15.7,15.7,0,0,0-6.831-1.474H12.2A15.7,15.7,0,0,0,5.367,43.43a2.928,2.928,0,0,1-3.286-4.759.587.587,0,0,0-.814-.847,4.1,4.1,0,0,0,2.838,7.064ZM12.1,38.438q-.582,0-1.169-.049v-.45a1.274,1.274,0,0,1,2.549,0V38.4c-.347.026-.693.04-1.037.04Z"/></g></svg>