<svg xmlns="http://www.w3.org/2000/svg" width="19.493" height="19.495" viewBox="0 0 19.493 19.495"><defs><style>.a{fill:#fff;}</style></defs><g transform="translate(-0.022)"><path class="a" d="M246.641,49.667h3.014a.476.476,0,0,0,.476-.476V46.164a.476.476,0,0,0-.476-.476h-3.014a.476.476,0,0,0-.476.476v.716a.286.286,0,0,0,.571,0v-.621h2.824V49.1h-2.824v-.842a.286.286,0,1,0-.571,0v.937A.476.476,0,0,0,246.641,49.667Z" transform="translate(-236.771 -43.948)"/><path class="a" d="M111.769,123.646h3.89a.286.286,0,0,0,0-.571h-3.89a.286.286,0,0,0,0,.571Z" transform="translate(-107.217 -118.389)"/><path class="a" d="M176.355,186.765a.286.286,0,0,0-.286-.286h-3.926a.286.286,0,0,0,0,.571h3.926A.286.286,0,0,0,176.355,186.765Z" transform="translate(-165.293 -179.379)"/><path class="a" d="M111.769,91.013h3.89a.286.286,0,0,0,0-.571h-3.89a.286.286,0,0,0,0,.571Z" transform="translate(-107.217 -86.998)"/><path class="a" d="M111.769,58.38h3.89a.286.286,0,0,0,0-.571h-3.89a.286.286,0,0,0,0,.571Z" transform="translate(-107.217 -55.608)"/><path class="a" d="M111.769,270.032h5.858a.286.286,0,1,0,0-.571h-5.858a.286.286,0,1,0,0,.571Z" transform="translate(-107.217 -259.201)"/><path class="a" d="M111.769,228.075H116.4a.286.286,0,0,0,0-.571h-4.633a.286.286,0,0,0,0,.571Z" transform="translate(-107.217 -218.842)"/><path class="a" d="M268.627,227.5h-2.67a.286.286,0,1,0,0,.571h2.67a.286.286,0,1,0,0-.571Z" transform="translate(-255.534 -218.842)"/><path class="a" d="M19.184,17.664l-.011-.01-1.757-1.564a3.726,3.726,0,0,0,.457-1.663.286.286,0,1,0-.571-.02,3.162,3.162,0,1,1-.181-1.18.286.286,0,0,0,.538-.191A3.738,3.738,0,0,0,14.6,10.582V.476A.476.476,0,0,0,14.122,0H3.5a.476.476,0,0,0-.476.476V1.509H2a.476.476,0,0,0-.476.476V3.018H.5a.476.476,0,0,0-.476.476V17.74a.476.476,0,0,0,.476.476H9.591a.476.476,0,0,0,.476-.476V16.707h1.24a3.719,3.719,0,0,0,4.607.877l1.771,1.586a1.063,1.063,0,1,0,1.5-1.506ZM3.6.571H14.027v9.985a3.732,3.732,0,0,0-2.976,1.656H9.892a.286.286,0,0,0,0,.571h.846q-.057.13-.105.266a3.738,3.738,0,0,0-.211,1.241c0,.113.005.225.015.335H6.464a2.058,2.058,0,0,0,.637-1.49v-.353H8.654a.286.286,0,1,0,0-.571H6.815a.286.286,0,0,0-.286.286v.639a1.488,1.488,0,0,1-1.483,1.49H3.6ZM2.1,16.135v-3.9a.286.286,0,1,0-.571,0v4A.476.476,0,0,0,2,16.707H9.5v.938H.593V3.589h.932v7.436a.286.286,0,1,0,.571,0V2.08h.932V14.912a.286.286,0,0,0,.286.286h7.219a3.719,3.719,0,0,0,.375.938H2.1Zm16.712,2.652a.519.519,0,0,1-.737-.038L16.41,17.262a3.783,3.783,0,0,0,.689-.688l1.687,1.5a.506.506,0,0,1,.021.712Z"/><path class="a" d="M309.526,311.232a2.441,2.441,0,1,0,2.434,2.441A2.448,2.448,0,0,0,309.526,311.232Zm0,4.31a1.87,1.87,0,1,1,1.863-1.87A1.868,1.868,0,0,1,309.526,315.543Z" transform="translate(-295.377 -299.382)"/></g></svg>