<svg xmlns="http://www.w3.org/2000/svg" width="15.001" height="13.005" viewBox="0 0 15.001 13.005">
  <g id="Layer_51" data-name="Layer 51" transform="translate(-0.999 -3)">
    <path id="Path_44042" data-name="Path 44042" d="M1.5,16a.56.56,0,0,1-.155,0A.5.5,0,0,1,1,15.5V15A9.5,9.5,0,0,1,9,5.62V3.5a.5.5,0,0,1,.8-.4l6,4.5a.5.5,0,0,1,0,.8l-6,4.5a.5.5,0,0,1-.8-.4V10.625a9.33,9.33,0,0,0-6.035,3.71L1.9,15.8A.5.5,0,0,1,1.5,16ZM10,4.5V6.06a.5.5,0,0,1-.445.5,8.5,8.5,0,0,0-7.5,7.3l.08-.1a10.34,10.34,0,0,1,7.315-4.2.506.506,0,0,1,.55.5V11.5L14.664,8Z" transform="translate(0)" fill="#e67e15"/>
  </g>
</svg>
