<svg xmlns="http://www.w3.org/2000/svg" width="15.845" height="20" viewBox="0 0 15.845 20"><defs><style>.a{fill:#fff;}</style></defs><g transform="translate(-0.5)"><path class="a" d="M11.278.155A.484.484,0,0,0,10.93,0h-7.8A2.639,2.639,0,0,0,.5,2.623V17.377A2.639,2.639,0,0,0,3.128,20H13.717a2.639,2.639,0,0,0,2.628-2.623V5.662a.52.52,0,0,0-.14-.338Zm.14,1.551,3.3,3.464H12.572a1.15,1.15,0,0,1-1.155-1.15Zm2.3,17.329H3.128a1.673,1.673,0,0,1-1.662-1.657V2.623A1.673,1.673,0,0,1,3.128.966h7.324V4.019a2.113,2.113,0,0,0,2.121,2.116h2.807V17.377A1.67,1.67,0,0,1,13.717,19.034Zm0,0"/><path class="a" d="M96.3,401.934H89.58c-.224,0-.408.261-.408.58s.184.58.408.58H96.3c.224,0,.408-.261.408-.58S96.526,401.934,96.3,401.934Zm0,0" transform="translate(-84.515 -386.393)"/><path class="a" d="M119.395,174.917l2.388-2.568v6.331a.58.58,0,0,0,1.159,0v-6.331l2.388,2.568a.578.578,0,0,0,.846-.788l-3.4-3.646a.575.575,0,0,0-.846,0l-3.4,3.646a.578.578,0,0,0,.029.817A.591.591,0,0,0,119.395,174.917Zm0,0" transform="translate(-113.939 -164.438)"/></g></svg>