<svg xmlns="http://www.w3.org/2000/svg" width="16.71" height="16.711" viewBox="0 0 16.71 16.711"><g transform="translate(-0.025)"><g transform="translate(3.877 1.878)"><path d="M126.038,61.809l0,0-3.225-4.152a.326.326,0,0,0-.257-.126h0a.326.326,0,0,0-.257.125l-3.239,4.13-.016.023a4.5,4.5,0,1,0,7,0Zm-3.5,6.683a3.851,3.851,0,0,1-2.97-6.3.325.325,0,0,0,.025-.035l2.958-3.773,2.961,3.812.012.016a3.85,3.85,0,0,1-2.986,6.281Z" transform="translate(-118.035 -57.527)"/></g><g transform="translate(9.224 9.27)"><path d="M283.97,284.01a.326.326,0,0,0-.393.243,2.528,2.528,0,0,1-1.5,1.753.326.326,0,1,0,.248.6,3.182,3.182,0,0,0,1.884-2.207A.326.326,0,0,0,283.97,284.01Z" transform="translate(-281.878 -284.001)"/></g><g transform="translate(10.991 7.954)"><path d="M336.318,243.708a.326.326,0,0,0-.326.326v.007a.326.326,0,1,0,.653,0v-.007A.326.326,0,0,0,336.318,243.708Z" transform="translate(-335.992 -243.708)"/></g><g transform="translate(0.025 0.002)"><g transform="translate(0)"><path d="M12.394,1.142l-.456-.79a.326.326,0,0,0-.6.256A8.356,8.356,0,0,0,.07,9.182a.326.326,0,0,0,.325.3h.03a.326.326,0,0,0,.3-.355A7.7,7.7,0,0,1,11.405,1.336l-.247.143a.326.326,0,1,0,.326.565l.79-.456A.326.326,0,0,0,12.394,1.142Z" transform="translate(-0.035 -0.07)"/></g></g><g transform="translate(4.814 6.967)"><path d="M158.6,213.75a.326.326,0,1,0-.647.087,7.738,7.738,0,0,1-5.527,8.423,7.629,7.629,0,0,1-4.71-.158l.309-.2a.326.326,0,1,0-.35-.551l-.77.489a.326.326,0,0,0-.1.45l.484.764a.326.326,0,0,0,.6-.211,8.254,8.254,0,0,0,2.421.364,8.362,8.362,0,0,0,8.292-9.461Z" transform="translate(-146.755 -213.467)"/></g><g transform="translate(0.025 9.922)"><path d="M4.437,306.3v0l-1.663-2.187a.326.326,0,0,0-.259-.129h0a.326.326,0,0,0-.259.128l-1.67,2.176-.011.015a2.561,2.561,0,0,0-.548,1.584,2.507,2.507,0,0,0,2.48,2.527,2.507,2.507,0,0,0,2.48-2.527A2.562,2.562,0,0,0,4.437,306.3ZM2.505,309.76a1.853,1.853,0,0,1-1.828-1.874,1.905,1.905,0,0,1,.42-1.2.318.318,0,0,0,.02-.027l1.394-1.816,1.4,1.84.01.013a1.907,1.907,0,0,1,.412,1.185A1.853,1.853,0,0,1,2.505,309.76Z" transform="translate(-0.025 -303.983)"/></g><g transform="translate(2.179 13.498)"><path d="M67.421,413.554a.326.326,0,0,0-.326.326.763.763,0,0,1-.751.774.326.326,0,1,0,0,.653,1.417,1.417,0,0,0,1.4-1.426A.326.326,0,0,0,67.421,413.554Z" transform="translate(-66.018 -413.554)"/></g><g transform="translate(11.774)"><path d="M364.4,2.318v0L362.738.129A.326.326,0,0,0,362.479,0h0a.326.326,0,0,0-.259.128L360.549,2.3l-.011.015A2.561,2.561,0,0,0,359.99,3.9a2.481,2.481,0,1,0,4.961,0A2.562,2.562,0,0,0,364.4,2.318ZM362.47,5.777A1.853,1.853,0,0,1,360.643,3.9a1.905,1.905,0,0,1,.42-1.2l.02-.027L362.477.864l1.4,1.84.01.013A1.907,1.907,0,0,1,364.3,3.9,1.853,1.853,0,0,1,362.47,5.777Z" transform="translate(-359.99)"/></g><g transform="translate(13.928 3.576)"><path d="M427.385,109.571a.326.326,0,0,0-.326.326.763.763,0,0,1-.751.774.326.326,0,0,0,0,.653,1.417,1.417,0,0,0,1.4-1.426A.326.326,0,0,0,427.385,109.571Z" transform="translate(-425.982 -109.571)"/></g></g></svg>