<svg xmlns="http://www.w3.org/2000/svg" width="48" height="37.495" viewBox="0 0 48 37.495"><defs><style>.a{fill:#e6b200;}</style></defs><g transform="translate(0 -56.025)"><g transform="translate(0 56.025)"><path class="a" d="M218.386,339.752a51.374,51.374,0,0,0-8.529,9.21.938.938,0,1,0,1.521,1.1,49.488,49.488,0,0,1,8.217-8.873.937.937,0,0,0-1.21-1.433Z" transform="translate(-190.023 -312.952)"/><path class="a" d="M47.937,73.4a.938.938,0,0,0-.875-.6q-1.4,0-2.8.073V71.024a4.654,4.654,0,0,0,2.362-1.276A4.715,4.715,0,0,0,47.742,64.9l-2.629-7.593a1.905,1.905,0,0,0-3.6,0L38.883,64.9A4.715,4.715,0,0,0,40,69.748,4.655,4.655,0,0,0,42.39,71.03v1.975a53.364,53.364,0,0,0-5.64.8V69.532a.937.937,0,0,0-.084-.388l-1.875-4.125a.937.937,0,0,0-.853-.55H29.063V61.645a.937.937,0,0,0-.084-.388L27.1,57.132a.937.937,0,0,0-.853-.55h-4.5a.938.938,0,0,0-.853.55l-1.875,4.125a.937.937,0,0,0-.084.388V64.47H14.063a.938.938,0,0,0-.853.55l-1.875,4.125a.937.937,0,0,0-.084.388v4.259A52.974,52.974,0,0,0,5.61,73V71.027A4.66,4.66,0,0,0,8,69.748,4.715,4.715,0,0,0,9.117,64.9L6.488,57.307a1.905,1.905,0,0,0-3.6,0L.258,64.9a4.715,4.715,0,0,0,1.115,4.848A4.66,4.66,0,0,0,3.735,71.02v1.853Q2.343,72.8.938,72.8a.938.938,0,0,0,0,1.875,50.887,50.887,0,0,1,20.936,4.442,53.033,53.033,0,0,0-8.582,5.753,45.31,45.31,0,0,0-11.972-7.8A.937.937,0,0,0,.556,78.78a43.435,43.435,0,0,1,11.3,7.318,53.494,53.494,0,0,0-4.807,4.824A49.767,49.767,0,0,0,1.66,82.965a.937.937,0,1,0-1.444,1.2,47.855,47.855,0,0,1,5.807,8.846.938.938,0,0,0,1.557.175A51.194,51.194,0,0,1,40.848,75.051a50.9,50.9,0,0,0-5.484,2.8.937.937,0,1,0,.953,1.615,49.037,49.037,0,0,1,7-3.414,65.846,65.846,0,0,0-11.476,16.1.937.937,0,1,0,1.673.847A64.055,64.055,0,0,1,47.692,74.434a.938.938,0,0,0,.245-1.032Zm-7.282-7.888,2.629-7.593c0-.01.007-.016.006-.016a.067.067,0,0,1,.043,0,.076.076,0,0,1,.008.018l2.629,7.593a2.829,2.829,0,0,1-.669,2.909,2.812,2.812,0,0,1-3.977,0A2.83,2.83,0,0,1,40.655,65.513Zm-38.625,0L4.659,57.92c0-.01.007-.016.006-.016a.068.068,0,0,1,.043,0,.074.074,0,0,1,.008.018l2.629,7.593a2.812,2.812,0,1,1-5.315,0Zm29.939,6.773a.938.938,0,0,0-.937.938v2.035q-.991.312-1.969.663V70.47h5.812v3.736q-.99.232-1.969.5V73.223A.938.938,0,0,0,31.969,72.286ZM24,74.489a.937.937,0,0,0-.937.938V77.6q-1.117-.511-2.25-.968V70.458h6.375v6.176q-1.136.456-2.25.965V75.426A.938.938,0,0,0,24,74.489Zm3.187-11.906v6h-2.25V66.192a.938.938,0,0,0-1.875,0v2.391h-2.25v-6Zm6.146,3.762,1.023,2.25H29.063v-2.25Zm-10.98-7.887h3.293l1.023,2.25H21.331Zm-7.687,7.887h4.271v2.25H13.643ZM13.125,70.47h5.812v5.444q-.979-.352-1.969-.665V73.223a.937.937,0,0,0-1.875,0v1.471q-.979-.27-1.969-.5Z" transform="translate(0 -56.025)"/><path class="a" d="M336.161,313.569a.938.938,0,1,0-.663.275A.945.945,0,0,0,336.161,313.569Z" transform="translate(-303.195 -287.974)"/></g></g></svg>