<svg xmlns="http://www.w3.org/2000/svg" width="18.566" height="11.425" viewBox="0 0 18.566 11.425"><defs><style>.a{fill:none;stroke:#fff;stroke-width:0.7px;}</style></defs><path class="a" d="M12.135,4.5h-2.4a.893.893,0,0,0-.6.234L6.39,7.247l-.008.011a1.11,1.11,0,0,0-.059,1.563A1.164,1.164,0,0,0,7.889,8.9s.008,0,.011-.006l2.23-2.043a.447.447,0,0,1,.6.659l-.729.667,4.065,3.3a2.011,2.011,0,0,1,.221.215v-5.4L12.766,4.762a.887.887,0,0,0-.631-.262Zm3.051,1.792v6.25a.892.892,0,0,0,.893.893h1.787V6.292Zm1.34,6.25a.447.447,0,1,1,.447-.447A.448.448,0,0,1,16.526,12.543ZM0,13.433H1.787a.892.892,0,0,0,.893-.893V6.292H0Zm1.34-1.784a.447.447,0,1,1-.447.447A.448.448,0,0,1,1.34,11.649Zm12.168.519L9.341,8.785,8.5,9.553A2.009,2.009,0,0,1,5.787,6.591L8.07,4.5H5.731a.892.892,0,0,0-.631.262L3.573,6.287v6.25h.511L6.61,14.823a1.786,1.786,0,0,0,2.512-.26l.006-.006.5.433a1.037,1.037,0,0,0,1.46-.151l.877-1.078.151.123a.892.892,0,0,0,1.256-.131l.265-.327a.9.9,0,0,0-.128-1.259Z" transform="translate(0.35 -4.15)"/></svg>