<svg xmlns="http://www.w3.org/2000/svg" width="18.005" height="18.005" viewBox="0 0 18.005 18.005"><defs><style>.a{fill:#212121;}</style></defs><path class="a" d="M7.127,6h-6A1.127,1.127,0,0,1,0,4.876V1.125A1.127,1.127,0,0,1,1.125,0h6A1.127,1.127,0,0,1,8.252,1.125V4.876A1.127,1.127,0,0,1,7.127,6ZM1.125.75a.376.376,0,0,0-.375.375V4.876a.376.376,0,0,0,.375.375h6A.376.376,0,0,0,7.5,4.876V1.125A.376.376,0,0,0,7.127.75Z"/><g transform="translate(0 7.502)"><path class="a" d="M7.127,20.5h-6A1.127,1.127,0,0,1,0,19.378V11.125A1.127,1.127,0,0,1,1.125,10h6a1.127,1.127,0,0,1,1.125,1.125v8.252A1.127,1.127,0,0,1,7.127,20.5Zm-6-9.753a.376.376,0,0,0-.375.375v8.252a.376.376,0,0,0,.375.375h6a.376.376,0,0,0,.375-.375V11.125a.376.376,0,0,0-.375-.375Z" transform="translate(0 -10)"/></g><g transform="translate(9.753 12.003)"><path class="a" d="M20.127,22h-6A1.127,1.127,0,0,1,13,20.876V17.125A1.127,1.127,0,0,1,14.125,16h6a1.127,1.127,0,0,1,1.125,1.125v3.751A1.127,1.127,0,0,1,20.127,22Zm-6-5.251a.376.376,0,0,0-.375.375v3.751a.376.376,0,0,0,.375.375h6a.376.376,0,0,0,.375-.375V17.125a.376.376,0,0,0-.375-.375Z" transform="translate(-13 -16)"/></g><g transform="translate(9.753)"><path class="a" d="M20.127,10.5h-6A1.127,1.127,0,0,1,13,9.378V1.125A1.127,1.127,0,0,1,14.125,0h6a1.127,1.127,0,0,1,1.125,1.125V9.378A1.127,1.127,0,0,1,20.127,10.5Zm-6-9.753a.376.376,0,0,0-.375.375V9.378a.376.376,0,0,0,.375.375h6a.376.376,0,0,0,.375-.375V1.125A.376.376,0,0,0,20.127.75Z" transform="translate(-13)"/></g></svg>