<svg xmlns="http://www.w3.org/2000/svg" width="19.723" height="18.774" viewBox="0 0 19.723 18.774"><defs><style>.a{fill:#212121;}</style></defs><g transform="translate(0 -12.316)"><path class="a" d="M19.343,325.893a1.626,1.626,0,0,0-1.981-.435l-3.672,1.8v-.2a1.885,1.885,0,0,0-1.87-1.9h-5.2a.385.385,0,0,0-.233.078l-1.71,1.3v-.657a.385.385,0,0,0-.385-.385H.385a.385.385,0,0,0-.385.385v4.728A.385.385,0,0,0,.385,331H4.295a.385.385,0,0,0,.385-.385v-.45l5.821,1.643a2.043,2.043,0,0,0,1.463-.112l6.8-3.227a1.65,1.65,0,0,0,.913-1.138,1.669,1.669,0,0,0-.337-1.438ZM3.909,330.229H.77v-3.958H3.909Zm15.02-3.069a.885.885,0,0,1-.49.612L11.634,331a1.274,1.274,0,0,1-.914.069l-.006,0-6.034-1.7V327.51l2.072-1.569H11.82a1.114,1.114,0,0,1,1.1,1.125v.429H10.172a.385.385,0,0,0,0,.77h3.135a.384.384,0,0,0,.175-.043l4.22-2.073a.859.859,0,0,1,1.046.232.9.9,0,0,1,.182.779Z" transform="translate(0 -300.803)"/><path class="a" d="M200.517,23.684a4.461,4.461,0,0,0,4.456-4.456c0-1.018-.711-2.478-2.113-4.338a31.045,31.045,0,0,0-2.064-2.454.385.385,0,0,0-.558,0,31.036,31.036,0,0,0-2.064,2.454c-1.4,1.861-2.113,3.32-2.113,4.338A4.461,4.461,0,0,0,200.517,23.684Zm0-10.417c1.241,1.362,3.686,4.373,3.686,5.961a3.686,3.686,0,1,1-7.371,0C196.831,17.641,199.276,14.63,200.517,13.267Z" transform="translate(-188.509)"/><path class="a" d="M281.431,157.856l.747.647a.385.385,0,0,0,.575-.081l1.155-1.773a.385.385,0,1,0-.646-.42l-.914,1.4-.414-.358a.385.385,0,0,0-.5.582Z" transform="translate(-270.462 -138.201)"/></g></svg>