<svg xmlns="http://www.w3.org/2000/svg" width="23.049" height="23.049" viewBox="0 0 23.049 23.049"><defs><style>.a{fill:#fff;}</style></defs><g transform="translate(0 0.001)"><path class="a" d="M4.053,17.824a1.879,1.879,0,0,0-.908.232A10.629,10.629,0,0,1,13.64,1.11a.45.45,0,0,0,.178-.883A11.61,11.61,0,0,0,11.524,0,11.524,11.524,0,0,0,2.48,18.666a1.891,1.891,0,1,0,1.574-.842Zm.7,2.591a.99.99,0,1,1,.29-.7A.983.983,0,0,1,4.754,20.415Zm0,0"/><path class="a" d="M209.162,34.99a1.887,1.887,0,1,0-.665.611A10.629,10.629,0,0,1,198.022,52.55a.45.45,0,1,0-.177.883,11.618,11.618,0,0,0,2.272.224,11.524,11.524,0,0,0,9.044-18.667Zm-2.274-.348a.991.991,0,1,1,.7.29.984.984,0,0,1-.7-.29Zm0,0" transform="translate(-188.594 -30.608)"/><path class="a" d="M80.32,89.936a.45.45,0,0,0,.45.45h2.815a.45.45,0,0,0,.45-.45v-.873a7.05,7.05,0,0,0,1.69-.7l.616.616a.45.45,0,0,0,.637,0l1.99-1.991a.45.45,0,0,0,0-.637l-.615-.615a7.05,7.05,0,0,0,.7-1.69h.869a.45.45,0,0,0,.45-.45V80.782a.45.45,0,0,0-.45-.45h-.87a7.051,7.051,0,0,0-.7-1.689l.612-.612a.45.45,0,0,0,0-.637L86.973,75.4a.45.45,0,0,0-.637,0l-.611.611a7.049,7.049,0,0,0-1.69-.7V74.45a.45.45,0,0,0-.45-.45H80.771a.45.45,0,0,0-.45.45v.865a7.044,7.044,0,0,0-1.689.7L78.02,75.4a.45.45,0,0,0-.637,0l-1.991,1.99a.45.45,0,0,0,0,.637l.612.612a7.048,7.048,0,0,0-.7,1.689h-.868a.45.45,0,0,0-.45.45l0,2.815a.45.45,0,0,0,.45.45H75.3a7.05,7.05,0,0,0,.7,1.69l-.615.615a.45.45,0,0,0,0,.637l1.99,1.991a.45.45,0,0,0,.318.132h0a.45.45,0,0,0,.318-.132l.616-.616a7.056,7.056,0,0,0,1.69.7Zm-1.513-2.52a.45.45,0,0,0-.563.06l-.548.548L76.343,86.67l.548-.548a.45.45,0,0,0,.06-.563A6.162,6.162,0,0,1,76.1,83.5a.45.45,0,0,0-.44-.356h-.773V81.232h.772a.45.45,0,0,0,.44-.356,6.163,6.163,0,0,1,.853-2.058.45.45,0,0,0-.06-.563l-.544-.544L77.7,76.358l.544.544a.451.451,0,0,0,.563.06,6.159,6.159,0,0,1,2.058-.853.45.45,0,0,0,.356-.44V74.9h1.914v.769a.45.45,0,0,0,.356.44,6.164,6.164,0,0,1,2.058.853.45.45,0,0,0,.563-.06l.544-.544,1.354,1.353-.544.544a.45.45,0,0,0-.06.563,6.166,6.166,0,0,1,.853,2.058.45.45,0,0,0,.44.356h.774v1.914H88.7a.45.45,0,0,0-.44.356,6.161,6.161,0,0,1-.853,2.058.45.45,0,0,0,.06.563l.548.548-1.353,1.354-.548-.548a.45.45,0,0,0-.563-.06,6.166,6.166,0,0,1-2.058.853.45.45,0,0,0-.356.44v.777H81.221v-.777a.45.45,0,0,0-.356-.44,6.162,6.162,0,0,1-2.058-.853Zm0,0" transform="translate(-70.654 -70.669)"/><path class="a" d="M180.811,177.091a3.72,3.72,0,1,0-3.72,3.72A3.724,3.724,0,0,0,180.811,177.091Zm-6.539,0a2.819,2.819,0,1,1,2.819,2.819A2.823,2.823,0,0,1,174.272,177.091Zm0,0" transform="translate(-165.567 -165.567)"/><path class="a" d="M338.528,18.709a.451.451,0,1,0-.318-.132A.453.453,0,0,0,338.528,18.709Zm0,0" transform="translate(-322.859 -17.007)"/><path class="a" d="M154.809,474.359a.45.45,0,1,0,.318.132A.454.454,0,0,0,154.809,474.359Zm0,0" transform="translate(-147.411 -453.005)"/></g></svg>