<?xml version="1.0" encoding="UTF-8"?>
<!DOCTYPE svg PUBLIC "-//W3C//DTD SVG 1.1//EN" "http://www.w3.org/Graphics/SVG/1.1/DTD/svg11.dtd">
<svg xmlns="http://www.w3.org/2000/svg" version="1.1" width="254px" height="206px" style="shape-rendering:geometricPrecision; text-rendering:geometricPrecision; image-rendering:optimizeQuality; fill-rule:evenodd; clip-rule:evenodd" xmlns:xlink="http://www.w3.org/1999/xlink">
<g><path style="opacity:1" fill="#fefefe" d="M -0.5,-0.5 C 84.1667,-0.5 168.833,-0.5 253.5,-0.5C 253.5,68.1667 253.5,136.833 253.5,205.5C 168.833,205.5 84.1667,205.5 -0.5,205.5C -0.5,136.833 -0.5,68.1667 -0.5,-0.5 Z"/></g>
<g><path style="opacity:1" fill="#bfbfbf" d="M 153.5,32.5 C 156.335,33.0695 158.001,34.7361 158.5,37.5C 156.64,36.0613 154.973,34.3947 153.5,32.5 Z"/></g>
<g><path style="opacity:1" fill="#1d1d1d" d="M 153.5,32.5 C 154.973,34.3947 156.64,36.0613 158.5,37.5C 159.409,47.7568 154.743,52.5902 144.5,52C 141.977,50.6403 139.977,48.807 138.5,46.5C 138.081,42.2273 138.748,38.2273 140.5,34.5C 141.058,33.2101 142.058,32.3768 143.5,32C 146.924,31.2534 150.257,31.42 153.5,32.5 Z"/></g>
<g><path style="opacity:1" fill="#5c5c5c" d="M 140.5,34.5 C 138.748,38.2273 138.081,42.2273 138.5,46.5C 137.359,43.3601 137.192,40.0267 138,36.5C 138.708,35.6195 139.542,34.9528 140.5,34.5 Z"/></g>
<g><path style="opacity:1" fill="#727272" d="M 141.5,58.5 C 138.316,59.3232 134.983,59.9899 131.5,60.5C 131.611,59.8826 131.944,59.3826 132.5,59C 135.482,58.502 138.482,58.3354 141.5,58.5 Z"/></g>
<g><path style="opacity:1" fill="#1c1c1c" d="M 141.5,58.5 C 148.175,58.3337 154.842,58.5004 161.5,59C 165.207,59.9358 168.374,61.7692 171,64.5C 173.877,80.9054 174.711,97.2388 173.5,113.5C 171.833,113.5 170.167,113.5 168.5,113.5C 167.833,113.5 167.5,113.167 167.5,112.5C 167.426,104.761 166.759,97.0943 165.5,89.5C 165.331,84.8189 164.998,80.1522 164.5,75.5C 163.5,75.5 162.5,75.5 161.5,75.5C 161.5,76.8333 161.5,78.1667 161.5,79.5C 160.627,83.7685 160.294,88.1018 160.5,92.5C 159.834,99.492 159.5,106.659 159.5,114C 159.305,124.38 159.971,134.546 161.5,144.5C 162.276,151.137 162.609,157.804 162.5,164.5C 162.389,165.117 162.056,165.617 161.5,166C 159.527,166.495 157.527,166.662 155.5,166.5C 154.201,164.588 153.201,162.588 152.5,160.5C 152.001,153.957 151.001,147.623 149.5,141.5C 149.5,141.167 149.5,140.833 149.5,140.5C 149.358,136.944 148.524,133.61 147,130.5C 146.536,131.094 146.369,131.761 146.5,132.5C 145.673,139.291 144.673,145.957 143.5,152.5C 142.343,155.273 141.676,158.273 141.5,161.5C 141.714,163.144 141.38,164.644 140.5,166C 137.901,166.769 135.401,166.602 133,165.5C 132.844,145.836 133.011,126.17 133.5,106.5C 133.167,96.5 132.833,86.5 132.5,76.5C 131.893,76.6236 131.56,76.9569 131.5,77.5C 129.251,78.0798 127.585,79.4131 126.5,81.5C 122.473,84.8604 118.806,88.5271 115.5,92.5C 113.251,93.0798 111.585,94.4131 110.5,96.5C 108.703,97.7298 106.703,98.3964 104.5,98.5C 103.833,98.5 103.5,98.1667 103.5,97.5C 103.704,95.3146 104.37,93.3146 105.5,91.5C 106.026,89.7697 107.026,88.4363 108.5,87.5C 109.906,87.0269 110.573,86.0269 110.5,84.5C 110.5,83.8333 110.833,83.5 111.5,83.5C 113.822,82.1979 115.155,80.1979 115.5,77.5C 115.833,76.5 116.5,75.8333 117.5,75.5C 119.262,74.7377 120.262,73.4044 120.5,71.5C 121.504,70.3172 122.338,68.9839 123,67.5C 125.415,64.6826 128.249,62.3492 131.5,60.5C 134.983,59.9899 138.316,59.3232 141.5,58.5 Z"/></g>
<g><path style="opacity:1" fill="#626262" d="M 120.5,71.5 C 120.262,73.4044 119.262,74.7377 117.5,75.5C 117.738,73.5956 118.738,72.2623 120.5,71.5 Z"/></g>
<g><path style="opacity:1" fill="#aeaeae" d="M 131.5,77.5 C 130.415,79.5869 128.749,80.9202 126.5,81.5C 127.585,79.4131 129.251,78.0798 131.5,77.5 Z"/></g>
<g><path style="opacity:1" fill="#d6d6d6" d="M 161.5,79.5 C 162.586,79.62 163.253,80.2867 163.5,81.5C 163.964,84.3493 164.631,87.016 165.5,89.5C 166.759,97.0943 167.426,104.761 167.5,112.5C 166.778,112.082 166.278,111.416 166,110.5C 165.667,106.5 165.333,102.5 165,98.5C 164.581,97.3279 163.915,96.3279 163,95.5C 162.965,118.67 162.798,141.67 162.5,164.5C 162.609,157.804 162.276,151.137 161.5,144.5C 160.679,127.18 160.346,109.847 160.5,92.5C 160.294,88.1018 160.627,83.7685 161.5,79.5 Z"/></g>
<g><path style="opacity:1" fill="#616161" d="M 115.5,77.5 C 115.155,80.1979 113.822,82.1979 111.5,83.5C 112.34,81.1475 113.674,79.1475 115.5,77.5 Z"/></g>
<g><path style="opacity:1" fill="#979797" d="M 165.5,89.5 C 164.631,87.016 163.964,84.3493 163.5,81.5C 163.253,80.2867 162.586,79.62 161.5,79.5C 161.5,78.1667 161.5,76.8333 161.5,75.5C 162.5,75.5 163.5,75.5 164.5,75.5C 164.998,80.1522 165.331,84.8189 165.5,89.5 Z"/></g>
<g><path style="opacity:1" fill="#949494" d="M 92.5,86.5 C 92.5,85.5 92.5,84.5 92.5,83.5C 91.0413,83.4326 89.7079,83.7659 88.5,84.5C 89.5521,82.744 91.2188,82.0773 93.5,82.5C 93.7678,84.099 93.4345,85.4324 92.5,86.5 Z"/></g>
<g><path style="opacity:1" fill="#666666" d="M 110.5,84.5 C 110.573,86.0269 109.906,87.0269 108.5,87.5C 108.427,85.9731 109.094,84.9731 110.5,84.5 Z"/></g>
<g><path style="opacity:1" fill="#1c1c1c" d="M 92.5,86.5 C 91.8505,88.4352 91.5172,90.4352 91.5,92.5C 90.0735,94.1484 89.2401,96.1484 89,98.5C 88.5012,94.5138 88.3345,90.5138 88.5,86.5C 88.5,85.8333 88.5,85.1667 88.5,84.5C 89.7079,83.7659 91.0413,83.4326 92.5,83.5C 92.5,84.5 92.5,85.5 92.5,86.5 Z"/></g>
<g><path style="opacity:1" fill="#b6b6b6" d="M 115.5,92.5 C 114.415,94.5869 112.749,95.9202 110.5,96.5C 111.585,94.4131 113.251,93.0798 115.5,92.5 Z"/></g>
<g><path style="opacity:1" fill="#333333" d="M 160.5,92.5 C 160.346,109.847 160.679,127.18 161.5,144.5C 159.971,134.546 159.305,124.38 159.5,114C 159.5,106.659 159.834,99.492 160.5,92.5 Z"/></g>
<g><path style="opacity:1" fill="#414141" d="M 88.5,86.5 C 88.3345,90.5138 88.5012,94.5138 89,98.5C 89.2401,96.1484 90.0735,94.1484 91.5,92.5C 90.7518,97.4855 90.0851,102.485 89.5,107.5C 89.1667,107.5 88.8333,107.5 88.5,107.5C 88.8134,104.753 88.48,102.086 87.5,99.5C 86.8281,100.949 86.1614,102.282 85.5,103.5C 85.8634,97.5935 86.8634,91.9268 88.5,86.5 Z"/></g>
<g><path style="opacity:1" fill="#818181" d="M 105.5,91.5 C 104.37,93.3146 103.704,95.3146 103.5,97.5C 101.984,94.9196 102.651,92.9196 105.5,91.5 Z"/></g>
<g><path style="opacity:1" fill="#bfbfbf" d="M 110.5,96.5 C 110.586,97.4959 110.252,98.3292 109.5,99C 107.613,99.7796 105.946,99.6129 104.5,98.5C 106.703,98.3964 108.703,97.7298 110.5,96.5 Z"/></g>
<g><path style="opacity:1" fill="#1d1d1d" d="M 88.5,107.5 C 88.5,109.167 88.5,110.833 88.5,112.5C 87.2921,113.234 85.9587,113.567 84.5,113.5C 84.7038,110.482 85.0371,107.482 85.5,104.5C 85.5,104.167 85.5,103.833 85.5,103.5C 86.1614,102.282 86.8281,100.949 87.5,99.5C 88.48,102.086 88.8134,104.753 88.5,107.5 Z"/></g>
<g><path style="opacity:1" fill="#303030" d="M 105.5,112.5 C 104.833,112.5 104.167,112.5 103.5,112.5C 102.5,112.167 101.833,111.5 101.5,110.5C 101.5,109.5 101.5,108.5 101.5,107.5C 105.152,104.955 107.319,105.955 108,110.5C 107.292,111.381 106.458,112.047 105.5,112.5 Z"/></g>
<g><path style="opacity:1" fill="#bbbbbb" d="M 101.5,107.5 C 101.5,108.5 101.5,109.5 101.5,110.5C 100.849,109.909 100.182,109.243 99.5,108.5C 98.2798,109.711 97.1131,109.711 96,108.5C 95.5357,109.094 95.369,109.761 95.5,110.5C 94.5,110.5 93.5,110.5 92.5,110.5C 93.6384,108.279 94.9717,106.279 96.5,104.5C 97.5676,103.566 98.901,103.232 100.5,103.5C 100.232,105.099 100.566,106.432 101.5,107.5 Z"/></g>
<g><path style="opacity:1" fill="#252525" d="M 96.5,104.5 C 97.5,104.5 98.5,104.5 99.5,104.5C 99.5,105.5 99.5,106.5 99.5,107.5C 96.5065,107.854 95.5065,106.854 96.5,104.5 Z"/></g>
<g><path style="opacity:1" fill="#969696" d="M 85.5,104.5 C 85.0371,107.482 84.7038,110.482 84.5,113.5C 85.9587,113.567 87.2921,113.234 88.5,112.5C 90.9878,114.388 93.9878,115.055 97.5,114.5C 92.9063,114.865 88.573,115.865 84.5,117.5C 84.5,117.833 84.5,118.167 84.5,118.5C 83.838,116.696 83.5046,114.696 83.5,112.5C 83.2865,109.473 83.9532,106.807 85.5,104.5 Z"/></g>
<g><path style="opacity:1" fill="#d9d9d9" d="M 88.5,107.5 C 88.8333,107.5 89.1667,107.5 89.5,107.5C 89.5,109.5 89.5,111.5 89.5,113.5C 90.791,113.737 91.791,113.404 92.5,112.5C 94.1788,112.715 95.1788,112.048 95.5,110.5C 95.369,109.761 95.5357,109.094 96,108.5C 97.1131,109.711 98.2798,109.711 99.5,108.5C 100.182,109.243 100.849,109.909 101.5,110.5C 101.833,111.5 102.5,112.167 103.5,112.5C 103.53,113.497 103.03,114.164 102,114.5C 100.989,113.944 100.156,113.278 99.5,112.5C 98.1667,112.5 97.5,113.167 97.5,114.5C 93.9878,115.055 90.9878,114.388 88.5,112.5C 88.5,110.833 88.5,109.167 88.5,107.5 Z"/></g>
<g><path style="opacity:1" fill="#343434" d="M 92.5,110.5 C 93.5,110.5 94.5,110.5 95.5,110.5C 95.1788,112.048 94.1788,112.715 92.5,112.5C 92.5,111.833 92.5,111.167 92.5,110.5 Z"/></g>
<g><path style="opacity:1" fill="#4b4b4b" d="M 168.5,113.5 C 170.167,113.5 171.833,113.5 173.5,113.5C 171.833,116.167 170.167,116.167 168.5,113.5 Z"/></g>
<g><path style="opacity:1" fill="#979797" d="M 99.5,112.5 C 100.156,113.278 100.989,113.944 102,114.5C 103.03,114.164 103.53,113.497 103.5,112.5C 104.167,112.5 104.833,112.5 105.5,112.5C 109.573,114.135 113.906,115.135 118.5,115.5C 112.167,115.5 105.833,115.5 99.5,115.5C 99.5,114.5 99.5,113.5 99.5,112.5 Z"/></g>
<g><path style="opacity:1" fill="#161616" d="M 99.5,112.5 C 99.5,113.5 99.5,114.5 99.5,115.5C 105.833,115.5 112.167,115.5 118.5,115.5C 107.549,117.478 96.216,118.144 84.5,117.5C 88.573,115.865 92.9063,114.865 97.5,114.5C 97.5,113.167 98.1667,112.5 99.5,112.5 Z"/></g>
<g><path style="opacity:1" fill="#2d2d2d" d="M 118.5,115.5 C 119.833,116.5 119.833,117.5 118.5,118.5C 107.167,118.5 95.8333,118.5 84.5,118.5C 84.5,118.167 84.5,117.833 84.5,117.5C 96.216,118.144 107.549,117.478 118.5,115.5 Z"/></g>
<g><path style="opacity:1" fill="#b1b1b1" d="M 84.5,118.5 C 95.8333,118.5 107.167,118.5 118.5,118.5C 118.167,119.167 117.833,119.833 117.5,120.5C 106.833,120.5 96.1667,120.5 85.5,120.5C 85.1667,119.833 84.8333,119.167 84.5,118.5 Z"/></g>
<g><path style="opacity:1" fill="#454545" d="M 85.5,120.5 C 96.1667,120.5 106.833,120.5 117.5,120.5C 117.819,125.363 117.486,130.03 116.5,134.5C 116.5,130.167 116.5,125.833 116.5,121.5C 106.5,121.5 96.5,121.5 86.5,121.5C 86.5,125.5 86.5,129.5 86.5,133.5C 85.5151,129.366 85.1818,125.032 85.5,120.5 Z"/></g>
<g><path style="opacity:1" fill="#191919" d="M 116.5,134.5 C 115.89,140.815 115.557,147.149 115.5,153.5C 114.518,157.316 113.851,161.316 113.5,165.5C 108.025,166.489 102.358,166.822 96.5,166.5C 96.5,165.5 96.5,164.5 96.5,163.5C 96.7086,157.415 93.7086,154.749 87.5,155.5C 87.81,152.287 87.4767,149.287 86.5,146.5C 86.5,142.167 86.5,137.833 86.5,133.5C 86.5,129.5 86.5,125.5 86.5,121.5C 96.5,121.5 106.5,121.5 116.5,121.5C 116.5,125.833 116.5,130.167 116.5,134.5 Z"/></g>
<g><path style="opacity:1" fill="#c4c4c4" d="M 85.5,120.5 C 85.1818,125.032 85.5151,129.366 86.5,133.5C 86.5,137.833 86.5,142.167 86.5,146.5C 86.5,148.167 86.5,149.833 86.5,151.5C 84.7168,141.194 84.3834,130.86 85.5,120.5 Z"/></g>
<g><path style="opacity:1" fill="#a0a0a0" d="M 149.5,140.5 C 148.251,137.913 147.251,135.246 146.5,132.5C 146.369,131.761 146.536,131.094 147,130.5C 148.524,133.61 149.358,136.944 149.5,140.5 Z"/></g>
<g><path style="opacity:1" fill="#d2d2d2" d="M 149.5,141.5 C 151.001,147.623 152.001,153.957 152.5,160.5C 149.911,154.556 148.911,148.222 149.5,141.5 Z"/></g>
<g><path style="opacity:1" fill="#676767" d="M 86.5,146.5 C 87.4767,149.287 87.81,152.287 87.5,155.5C 93.7086,154.749 96.7086,157.415 96.5,163.5C 95.8333,163.833 95.1667,164.167 94.5,164.5C 94.9514,158.281 92.2847,156.281 86.5,158.5C 86.8499,156.374 86.8499,154.041 86.5,151.5C 86.5,149.833 86.5,148.167 86.5,146.5 Z"/></g>
<g><path style="opacity:1" fill="#737373" d="M 115.5,153.5 C 115.665,157.182 115.499,160.848 115,164.5C 114.617,165.056 114.117,165.389 113.5,165.5C 113.851,161.316 114.518,157.316 115.5,153.5 Z"/></g>
<g><path style="opacity:1" fill="#1d1d1d" d="M 94.5,164.5 C 94.3893,165.117 94.056,165.617 93.5,166C 86.7632,167.433 84.4299,164.933 86.5,158.5C 92.2847,156.281 94.9514,158.281 94.5,164.5 Z"/></g>
<g><path style="opacity:1" fill="#a2a2a2" d="M 143.5,152.5 C 143.664,155.187 143.497,157.854 143,160.5C 142.617,161.056 142.117,161.389 141.5,161.5C 141.676,158.273 142.343,155.273 143.5,152.5 Z"/></g>
<g><path style="opacity:1" fill="#b5b5b5" d="M 152.5,160.5 C 153.201,162.588 154.201,164.588 155.5,166.5C 154.504,166.586 153.671,166.252 153,165.5C 152.506,163.866 152.34,162.199 152.5,160.5 Z"/></g>
</svg>
