<?xml version="1.0" encoding="UTF-8"?>
<!DOCTYPE svg PUBLIC "-//W3C//DTD SVG 1.1//EN" "http://www.w3.org/Graphics/SVG/1.1/DTD/svg11.dtd">
<svg xmlns="http://www.w3.org/2000/svg" version="1.1" width="875px" height="762px" style="shape-rendering:geometricPrecision; text-rendering:geometricPrecision; image-rendering:optimizeQuality; fill-rule:evenodd; clip-rule:evenodd" xmlns:xlink="http://www.w3.org/1999/xlink">
<g><path style="opacity:0.955" fill="#000000" d="M 304.5,61.5 C 311.564,61.2805 316.73,64.2805 320,70.5C 349.441,119.718 373.774,171.384 393,225.5C 403.051,253.879 404.051,282.545 396,311.5C 380.784,352.532 351.284,374.199 307.5,376.5C 256.672,373.51 225.505,347.176 214,297.5C 210.171,277.269 211.171,257.269 217,237.5C 229.852,195.458 246.852,155.125 268,116.5C 277.333,99.8333 286.667,83.1667 296,66.5C 298.682,64.415 301.516,62.7483 304.5,61.5 Z M 306.5,103.5 C 332.576,148.203 353.743,195.203 370,244.5C 378.557,272.932 374.89,299.598 359,324.5C 336.474,349.172 309.641,355.339 278.5,343C 251.782,327.726 238.782,304.56 239.5,273.5C 240.717,252.34 245.55,232.007 254,212.5C 269.366,175.103 286.866,138.77 306.5,103.5 Z"/></g>
<g><path style="opacity:0.955" fill="#000000" d="M 460.5,237.5 C 535.582,239.61 593.415,271.944 634,334.5C 670.397,400.109 671.73,466.442 638,533.5C 591.419,610.04 523.253,643.873 433.5,635C 361.455,622.084 309.955,582.584 279,516.5C 267.434,489.668 262.434,461.668 264,432.5C 265.869,427.649 269.369,424.816 274.5,424C 288.167,423.333 301.833,423.333 315.5,424C 326.706,427.581 329.873,434.748 325,445.5C 323.457,447.378 321.624,448.878 319.5,450C 310.234,451.386 300.9,451.886 291.5,451.5C 299.381,519.145 334.047,567.312 395.5,596C 412.58,602.853 430.246,607.353 448.5,609.5C 449.332,599.851 449.832,590.184 450,580.5C 457.214,570.744 465.214,570.077 474,578.5C 474.862,580.087 475.529,581.754 476,583.5C 476.333,592.167 476.667,600.833 477,609.5C 552.915,599.247 603.248,557.913 628,485.5C 631.004,474.645 633.171,463.645 634.5,452.5C 626.521,451.668 618.521,451.168 610.5,451C 599.618,448.743 595.784,442.243 599,431.5C 601.111,427.056 604.611,424.556 609.5,424C 617.827,423.5 626.16,423.334 634.5,423.5C 625.67,352.525 588.337,303.358 522.5,276C 507.888,270.763 492.888,267.263 477.5,265.5C 476.668,274.148 476.168,282.814 476,291.5C 472.591,300.955 466.091,304.121 456.5,301C 453.667,299.5 451.5,297.333 450,294.5C 449.333,278.5 449.333,262.5 450,246.5C 452.103,241.722 455.603,238.722 460.5,237.5 Z"/></g>
<g><path style="opacity:0.954" fill="#000000" d="M 547.5,333.5 C 560.69,333.189 566.19,339.522 564,352.5C 545.362,372.138 526.362,391.472 507,410.5C 509.507,416.892 511.507,423.559 513,430.5C 514.67,459.353 501.837,478.186 474.5,487C 445.072,491.545 424.905,480.045 414,452.5C 407.495,420.357 419.662,398.857 450.5,388C 462.901,385.207 474.734,386.707 486,392.5C 504.167,374.333 522.333,356.167 540.5,338C 542.76,336.212 545.093,334.712 547.5,333.5 Z M 460.5,413.5 C 475.89,414.223 484.557,422.223 486.5,437.5C 484.852,451.815 476.852,459.815 462.5,461.5C 441.749,456.663 435.249,444.33 443,424.5C 447.594,418.632 453.427,414.965 460.5,413.5 Z"/></g>
</svg>
