<?xml version="1.0" standalone="no"?>
<!DOCTYPE svg PUBLIC "-//W3C//DTD SVG 20010904//EN"
 "http://www.w3.org/TR/2001/REC-SVG-20010904/DTD/svg10.dtd">
<svg version="1.0" xmlns="http://www.w3.org/2000/svg"
 width="512.000000pt" height="512.000000pt" viewBox="0 0 512.000000 512.000000"
 preserveAspectRatio="xMidYMid meet">

<g transform="translate(0.000000,512.000000) scale(0.100000,-0.100000)"
fill="#000000" stroke="none">
<path d="M869 5097 c-107 -37 -177 -93 -234 -191 -57 -97 -55 -62 -53 -1567
l3 -1381 24 -19 c28 -22 69 -25 97 -5 19 14 19 43 24 1428 l5 1413 29 53 c17
30 47 67 67 83 80 63 -33 59 1728 59 1764 0 1656 4 1732 -59 19 -16 48 -53 64
-82 l30 -54 3 -437 3 -437 26 -21 c42 -33 85 -25 108 21 22 41 21 792 0 893
-32 154 -145 271 -299 312 -42 11 -330 14 -1671 14 l-1620 -1 -66 -22z"/>
<path d="M1763 4680 c-35 -14 -43 -42 -43 -145 0 -89 2 -98 25 -120 13 -14 36
-25 50 -25 14 0 37 11 50 25 23 22 25 32 25 119 0 111 -3 122 -41 141 -32 17
-35 17 -66 5z"/>
<path d="M3295 4679 c-39 -22 -45 -40 -45 -141 0 -92 2 -101 25 -123 13 -14
36 -25 50 -25 14 0 37 11 50 25 23 22 25 31 25 123 0 81 -3 104 -17 120 -22
26 -62 35 -88 21z"/>
<path d="M2301 4514 c-30 -38 -26 -59 18 -107 127 -138 355 -137 483 1 33 36
39 48 33 70 -18 71 -78 83 -145 27 -38 -32 -93 -55 -130 -55 -37 0 -92 23
-130 55 -53 44 -99 47 -129 9z"/>
<path d="M1297 3760 c-94 -24 -176 -90 -224 -182 -25 -47 -28 -64 -28 -148 0
-89 2 -99 34 -158 38 -70 92 -120 167 -154 68 -31 189 -32 256 -1 98 45 165
150 175 278 4 52 2 63 -16 83 -20 20 -31 22 -136 22 -111 0 -114 -1 -134 -26
-27 -34 -26 -57 2 -89 17 -20 36 -28 75 -33 l53 -7 -23 -35 c-34 -50 -81 -72
-142 -66 -149 16 -220 196 -120 306 66 73 153 86 247 39 38 -20 42 -20 73 -5
72 34 53 104 -38 150 -64 31 -155 42 -221 26z"/>
<path d="M1798 3750 l-28 -21 0 -299 0 -299 26 -20 c69 -54 124 -5 124 111 l1
63 31 -35 c156 -176 167 -182 222 -139 46 36 36 72 -43 163 l-69 80 38 25
c138 93 132 281 -10 361 -39 21 -61 25 -155 28 -101 4 -112 2 -137 -18z m232
-150 c45 -45 13 -99 -65 -107 l-45 -6 0 67 0 66 45 0 c32 0 51 -6 65 -20z"/>
<path d="M2572 3760 c-13 -6 -31 -29 -42 -53 -52 -118 -200 -522 -200 -547 0
-33 40 -70 76 -70 32 0 57 27 79 84 l18 46 107 0 107 0 18 -46 c32 -83 76
-105 129 -63 17 13 26 30 26 49 0 16 -45 149 -100 297 -118 315 -134 336 -218
303z m61 -312 c8 -24 18 -51 22 -60 6 -16 1 -18 -44 -18 l-50 0 21 60 c12 33
25 60 29 60 4 0 14 -19 22 -42z"/>
<path d="M3006 3749 l-26 -20 0 -299 0 -299 26 -20 c34 -27 64 -27 92 -1 12
12 23 22 24 23 0 1 4 71 7 154 l6 153 110 -161 c61 -88 118 -165 127 -170 22
-12 65 -11 88 1 33 18 37 59 32 339 -4 271 -5 275 -28 298 -30 30 -69 29 -99
-2 -24 -24 -25 -28 -25 -181 l0 -158 -110 160 c-146 212 -167 228 -224 183z"/>
<path d="M3665 3745 c-30 -29 -32 -64 -6 -96 14 -17 32 -25 72 -29 l54 -5 3
-242 2 -242 27 -20 c45 -36 92 -22 113 33 6 16 10 121 10 252 l0 224 48 0 c38
0 53 5 70 23 31 33 29 80 -4 106 -25 19 -40 21 -196 21 -166 0 -169 0 -193
-25z"/>
<path d="M4415 3694 c-20 -15 -20 -30 -25 -1322 -6 -1455 1 -1337 -75 -1420
-65 -73 -107 -86 -280 -86 l-150 -1 -3 188 -2 188 35 42 c45 53 69 132 62 207
-6 74 7 102 81 176 49 49 64 72 77 119 33 112 4 206 -94 302 -64 64 -65 66
-61 165 4 117 -61 226 -165 274 -41 20 -67 24 -144 24 l-94 0 -60 61 c-86 86
-124 104 -222 104 -70 0 -87 -4 -133 -29 -30 -17 -67 -47 -84 -68 -44 -56 -74
-68 -170 -68 -95 0 -161 -24 -216 -80 -59 -58 -75 -103 -82 -223 l-6 -109 -56
-51 c-80 -75 -103 -123 -103 -222 0 -98 13 -126 99 -213 l61 -63 6 -107 c6
-116 19 -153 70 -208 l29 -30 -2 -190 -3 -189 -885 0 c-986 0 -916 -5 -998 70
-23 20 -51 57 -64 83 -22 46 -23 56 -26 379 l-3 333 -26 20 c-14 11 -32 20
-39 20 -26 0 -62 -23 -73 -47 -14 -31 -15 -589 -1 -664 34 -179 175 -313 355
-339 42 -6 413 -10 918 -10 l847 0 0 -282 c0 -267 1 -284 21 -326 27 -55 80
-91 147 -99 68 -8 108 13 252 133 63 52 127 104 141 114 l26 19 139 -115 c148
-123 198 -154 254 -154 70 0 155 59 179 123 7 18 11 135 11 308 l0 279 113 0
c152 0 240 14 312 50 113 55 202 173 225 300 7 36 9 504 8 1334 l-3 1278 -24
19 c-28 23 -68 24 -96 3z m-1002 -1192 c84 -83 128 -102 243 -102 77 0 95 -3
118 -21 43 -34 55 -68 54 -155 -1 -102 22 -156 102 -240 32 -33 62 -73 66 -88
12 -48 -12 -101 -66 -146 -30 -25 -59 -62 -76 -97 -24 -49 -28 -67 -26 -143 2
-143 -34 -179 -178 -177 -75 2 -92 -2 -142 -26 -36 -18 -72 -46 -98 -77 -45
-54 -98 -78 -146 -66 -15 4 -54 34 -86 66 -85 84 -132 104 -238 103 -143 -2
-180 34 -180 177 0 108 -25 165 -105 242 -50 48 -58 61 -62 101 -6 55 8 82 73
140 23 20 54 61 68 89 22 45 26 65 26 146 l0 94 39 39 39 39 94 0 c81 0 101 4
145 26 29 14 69 44 89 67 60 67 82 79 137 74 44 -4 55 -10 110 -65z m-417
-1322 c15 -6 58 -40 96 -75 53 -51 80 -68 124 -81 105 -30 211 2 288 87 57 63
96 80 169 72 l57 -6 0 -501 c0 -514 -1 -526 -38 -526 -7 0 -93 65 -190 145
-140 114 -183 145 -207 145 -24 0 -63 -28 -195 -136 -185 -152 -202 -163 -225
-144 -13 11 -15 76 -15 516 l0 503 43 4 c23 2 47 4 54 5 6 1 24 -3 39 -8z"/>
<path d="M1163 2530 c-44 -18 -57 -86 -23 -120 20 -20 33 -20 560 -20 527 0
540 0 560 20 25 25 26 71 1 101 l-19 24 -529 2 c-292 1 -538 -2 -550 -7z"/>
<path d="M1140 2150 c-25 -25 -26 -71 -1 -101 l19 -24 542 0 542 0 19 24 c25
30 24 76 -1 101 -20 20 -33 20 -560 20 -527 0 -540 0 -560 -20z"/>
<path d="M1146 1789 c-36 -28 -36 -80 0 -108 26 -21 36 -21 554 -21 518 0 528
0 554 21 36 28 36 80 0 108 -26 21 -36 21 -554 21 -518 0 -528 0 -554 -21z"/>
</g>
</svg>
