<svg xmlns="http://www.w3.org/2000/svg" width="48" height="48" viewBox="0 0 48 48">
  <g id="sustainable" transform="translate(-1 -1)">
    <path id="Path_218" data-name="Path 218" d="M1,61H49v1.548H1Z" transform="translate(0 -13.548)" fill="#e6b200"/>
    <path id="Path_219" data-name="Path 219" d="M24.757,6.354a19.392,19.392,0,0,1,17.93,4.058l-1.846,1.846,8.772,2.193L47.42,5.679,45.975,7.124A24.032,24.032,0,0,0,23.568,1.862L23,2.019V6.456l1.585-.074Zm-.208-3.147A22.477,22.477,0,0,1,45.462,8.758l.547.522.571-.571.9,3.615-3.615-.9,1.048-1.048-.578-.547A20.935,20.935,0,0,0,24.548,4.806Z" transform="translate(-4.968)" fill="#e6b200"/>
    <path id="Path_220" data-name="Path 220" d="M1.862,32.67l.156.568H6.456l-.074-1.585-.028-.172A19.4,19.4,0,0,1,10.412,13.55L12.258,15.4l2.193-8.772L5.679,8.819l1.445,1.445A24.032,24.032,0,0,0,1.862,32.67Zm6.9-21.893.522-.547-.571-.571,3.615-.9-.9,3.615L10.372,11.32l-.547.578A20.937,20.937,0,0,0,4.806,31.69h-1.6A22.477,22.477,0,0,1,8.758,10.776Z" transform="translate(0 -1.27)" fill="#e6b200"/>
    <path id="Path_221" data-name="Path 221" d="M53.695,21.585l.028.172a19.394,19.394,0,0,1-4.058,17.931l-1.846-1.847-2.193,8.772L54.4,44.42l-1.445-1.445a24.032,24.032,0,0,0,5.261-22.407L58.058,20H53.621Zm3.175-.036a22.477,22.477,0,0,1-5.551,20.913l-.522.547.571.571-3.615.9.9-3.615,1.048,1.049.547-.578a20.937,20.937,0,0,0,5.019-19.792Z" transform="translate(-10.077 -4.29)" fill="#e6b200"/>
    <path id="Path_222" data-name="Path 222" d="M22,39h1.548v1.548H22Z" transform="translate(-4.742 -8.581)" fill="#e6b200"/>
    <path id="Path_223" data-name="Path 223" d="M14,39h1.548v1.548H14Z" transform="translate(-2.935 -8.581)" fill="#e6b200"/>
    <path id="Path_224" data-name="Path 224" d="M18,39h1.548v1.548H18Z" transform="translate(-3.839 -8.581)" fill="#e6b200"/>
    <path id="Path_225" data-name="Path 225" d="M18,43h1.548v1.548H18Z" transform="translate(-3.839 -9.484)" fill="#e6b200"/>
    <path id="Path_226" data-name="Path 226" d="M14,43h1.548v1.548H14Z" transform="translate(-2.935 -9.484)" fill="#e6b200"/>
    <path id="Path_227" data-name="Path 227" d="M22,43h1.548v1.548H22Z" transform="translate(-4.742 -9.484)" fill="#e6b200"/>
    <path id="Path_228" data-name="Path 228" d="M18,47h1.548v1.548H18Z" transform="translate(-3.839 -10.387)" fill="#e6b200"/>
    <path id="Path_229" data-name="Path 229" d="M22,47h1.548v1.548H22Z" transform="translate(-4.742 -10.387)" fill="#e6b200"/>
    <path id="Path_230" data-name="Path 230" d="M14,47h1.548v1.548H14Z" transform="translate(-2.935 -10.387)" fill="#e6b200"/>
    <path id="Path_231" data-name="Path 231" d="M14,51h1.548v1.548H14Z" transform="translate(-2.935 -11.29)" fill="#e6b200"/>
    <path id="Path_232" data-name="Path 232" d="M22,51h1.548v1.548H22Z" transform="translate(-4.742 -11.29)" fill="#e6b200"/>
    <path id="Path_233" data-name="Path 233" d="M18,51h1.548v1.548H18Z" transform="translate(-3.839 -11.29)" fill="#e6b200"/>
    <path id="Path_234" data-name="Path 234" d="M16,31h1.548v1.548H16Z" transform="translate(-3.387 -6.774)" fill="#e6b200"/>
    <path id="Path_235" data-name="Path 235" d="M24,31h1.548v1.548H24Z" transform="translate(-5.194 -6.774)" fill="#e6b200"/>
    <path id="Path_236" data-name="Path 236" d="M20,31h1.548v1.548H20Z" transform="translate(-4.29 -6.774)" fill="#e6b200"/>
    <path id="Path_237" data-name="Path 237" d="M28,31h1.548v1.548H28Z" transform="translate(-6.097 -6.774)" fill="#e6b200"/>
    <path id="Path_238" data-name="Path 238" d="M24,27h1.548v1.548H24Z" transform="translate(-5.194 -5.871)" fill="#e6b200"/>
    <path id="Path_239" data-name="Path 239" d="M28,27h1.548v1.548H28Z" transform="translate(-6.097 -5.871)" fill="#e6b200"/>
    <path id="Path_240" data-name="Path 240" d="M20,27h1.548v1.548H20Z" transform="translate(-4.29 -5.871)" fill="#e6b200"/>
    <path id="Path_241" data-name="Path 241" d="M16,27h1.548v1.548H16Z" transform="translate(-3.387 -5.871)" fill="#e6b200"/>
    <path id="Path_242" data-name="Path 242" d="M16,23h1.548v1.548H16Z" transform="translate(-3.387 -4.968)" fill="#e6b200"/>
    <path id="Path_243" data-name="Path 243" d="M24,23h1.548v1.548H24Z" transform="translate(-5.194 -4.968)" fill="#e6b200"/>
    <path id="Path_244" data-name="Path 244" d="M20,23h1.548v1.548H20Z" transform="translate(-4.29 -4.968)" fill="#e6b200"/>
    <path id="Path_245" data-name="Path 245" d="M28,23h1.548v1.548H28Z" transform="translate(-6.097 -4.968)" fill="#e6b200"/>
    <path id="Path_246" data-name="Path 246" d="M34.29,37.581h2.323a5.426,5.426,0,0,0,5.419-5.419v-.774H38.161a5.4,5.4,0,0,0-3.871,1.634V29.839h2.323a5.426,5.426,0,0,0,5.419-5.419v-.774H38.161a5.4,5.4,0,0,0-3.913,1.68,5.425,5.425,0,0,0-5.378-4.777H26.548V19H9.516V31.387H7.968V46.871H1v1.548H49V46.871H34.29Zm3.871-4.645h2.244a3.878,3.878,0,0,1-3.793,3.1H34.369A3.877,3.877,0,0,1,38.161,32.935Zm0-7.742h2.244a3.878,3.878,0,0,1-3.793,3.1H34.369A3.877,3.877,0,0,1,38.161,25.194ZM32.742,46.871H26.548V32.85a5.4,5.4,0,0,0,3.871,1.634h2.323V46.871ZM26.627,29.839h2.244a3.877,3.877,0,0,1,3.793,3.1H30.419A3.877,3.877,0,0,1,26.627,29.839ZM28.871,22.1a3.877,3.877,0,0,1,3.793,3.1H30.419a3.877,3.877,0,0,1-3.793-3.1Zm1.548,4.645h2.323v3.183a5.4,5.4,0,0,0-3.871-1.634H26.548V25.108A5.4,5.4,0,0,0,30.419,26.742ZM11.065,20.548H25V46.871H21.9V31.387H11.065ZM9.516,32.935H20.355V46.871H9.516Z" transform="translate(0 -4.065)" fill="#e6b200"/>
  </g>
</svg>
