<svg id="track_changes_black_24dp" xmlns="http://www.w3.org/2000/svg" width="20.763" height="20.763" viewBox="0 0 20.763 20.763">
  <path id="Path_289" data-name="Path 289" d="M0,0H20.763V20.763H0Z" fill="none"/>
  <path id="Path_290" data-name="Path 290" d="M16.768,4.535l-1.22,1.22A6.929,6.929,0,1,1,9.786,3.791V5.538A5.19,5.19,0,1,0,14.32,6.983L13.1,8.2a3.469,3.469,0,1,1-3.314-.891V9.163a1.713,1.713,0,0,0-.865,1.488,1.73,1.73,0,0,0,3.461,0,1.7,1.7,0,0,0-.865-1.488V2h-.865a8.655,8.655,0,1,0,6.117,2.535Z" transform="translate(-0.27 -0.27)" fill="#059b9a"/>
</svg>
