<svg xmlns="http://www.w3.org/2000/svg" width="36.065" height="34.286" viewBox="0 0 36.065 34.286">
  <g id="Group_16097" data-name="Group 16097" transform="translate(-955 -523)">
    <path id="Path_44028" data-name="Path 44028" d="M47.466,20.759H41.38a.408.408,0,0,1-.38-.431v-6.9A.408.408,0,0,1,41.38,13h6.085a.408.408,0,0,1,.38.431v6.9A.408.408,0,0,1,47.466,20.759Z" transform="translate(922.744 522)" fill="#ffc093"/>
    <path id="Path_44029" data-name="Path 44029" d="M47.466,28.018l-6.085-3c-.21,0-.38-.3-.38-.668V13.668c0-.369.17-.668.38-.668h6.085c.21,0,.38.3.38.668V27.35C47.846,27.719,47.676,28.018,47.466,28.018Z" transform="translate(928.744 517.74)" fill="#ffc093"/>
    <path id="Path_44030" data-name="Path 44030" d="M46.534,25.956H41.326c-.18,0-.326-.322-.326-.72V13.72c0-.4.146-.72.326-.72h5.209c.18,0,.326.322.326.72V25.236C46.86,25.634,46.714,25.956,46.534,25.956Z" transform="translate(935.744 525)" fill="#ffc093"/>
    <g id="business-and-finance" transform="translate(955 523)">
      <path id="Path_44022" data-name="Path 44022" d="M36,113.17a3.07,3.07,0,0,0-3.691-2.368l-3.759.861v-1.537a14.849,14.849,0,0,0,2.1-2.485,14.568,14.568,0,0,0,2.059-4.85,14.86,14.86,0,0,0,.028-6.308.7.7,0,0,0-1.378.295,13.433,13.433,0,0,1-.026,5.705,13.165,13.165,0,0,1-1.861,4.382,12.541,12.541,0,0,1-.921,1.215v-7.808a.7.7,0,0,0-.7-.7H22.273V92.046a.7.7,0,0,0-.7-.7l-6.277-.021h0a.7.7,0,0,0-.7.7v3.913H9.015a.7.7,0,0,0-.7.7v6.975H6.741v-.957a.7.7,0,0,0-.7-.7H5.314a13.332,13.332,0,0,1,.575-6.909c.131-.362.28-.723.443-1.073a.7.7,0,1,0-1.277-.595c-.18.387-.345.786-.49,1.187a14.72,14.72,0,0,0-.68,7.389H.7a.7.7,0,0,0-.7.7v12.381a.7.7,0,0,0,.7.7H6.036a.7.7,0,0,0,.7-.7v-.67H9.39l10.733,4.21a8.478,8.478,0,0,0,5.213.326l8.413-2.138A3.065,3.065,0,0,0,36,113.17Zm-8.859-12.193v11.008l-1.883.431c-.2.046-.407.083-.613.111a7.151,7.151,0,0,1-2.362-.069l-.01,0v-1.068a3.262,3.262,0,0,0,.434-2.744,3.163,3.163,0,0,0-.332-.739q-.048-.078-.1-.154v-6.775h4.868ZM16,92.732l4.868.016v13.883l-2.72-1.126L16,104.616ZM9.719,97.346h4.868v6.686l-.874-.362a.7.7,0,0,0-.269-.054H9.719ZM5.332,114.338H1.409V103.365H5.332ZM33.4,115.405l-8.413,2.138a7.079,7.079,0,0,1-4.352-.272L9.781,113.013a.7.7,0,0,0-.257-.048H6.741v-7.938H13.3l4.558,1.886,2.494,1.032a1.762,1.762,0,0,1,.943,2.282,2.014,2.014,0,0,1-.282.495,1.816,1.816,0,0,1-1.846.637l-.017,0q-.061-.015-.121-.035l-4.74-1.822-.059-.023a.7.7,0,1,0-.505,1.315s2.672,1.027,4.71,1.813c.041.016.082.031.123.045l1.565.6a12.936,12.936,0,0,0,1.436.489,8.546,8.546,0,0,0,4.011.05l2.43-.556.007,0,4.613-1.056a1.662,1.662,0,0,1,.78,3.23Zm0,0" transform="translate(0 -84.888)" fill="#1e44ad"/>
      <path id="Path_44023" data-name="Path 44023" d="M118.581,5.01a.7.7,0,0,0,.472-.182,13.237,13.237,0,0,1,9.78-3.391,13.212,13.212,0,0,1,3.84.836.7.7,0,0,0,.5-1.316,14.617,14.617,0,0,0-4.249-.926,14.646,14.646,0,0,0-10.817,3.751.7.7,0,0,0,.472,1.227Zm0,0" transform="translate(-109.574 0)" fill="#1e44ad"/>
      <path id="Path_44024" data-name="Path 44024" d="M351.688,38.147a.705.705,0,0,0,.994-.07l5.8-6.671a.7.7,0,1,0-1.063-.924l-5.8,6.671A.7.7,0,0,0,351.688,38.147Zm0,0" transform="translate(-326.69 -28.11)" fill="#1e44ad"/>
      <path id="Path_44025" data-name="Path 44025" d="M405.28,99.738a1.768,1.768,0,1,0,1.768,1.768A1.77,1.77,0,0,0,405.28,99.738Zm0,2.128a.36.36,0,1,1,.36-.36A.36.36,0,0,1,405.28,101.866Zm0,0" transform="translate(-375.089 -92.713)" fill="#1e44ad"/>
      <path id="Path_44026" data-name="Path 44026" d="M349.749,30.8a1.768,1.768,0,1,0-1.768-1.768A1.77,1.77,0,0,0,349.749,30.8Zm0-2.128a.36.36,0,1,1-.36.36A.36.36,0,0,1,349.749,28.674Zm0,0" transform="translate(-323.469 -25.345)" fill="#1e44ad"/>
      <path id="Path_44027" data-name="Path 44027" d="M91.634,81.8a.7.7,0,1,0,.259-.855A.71.71,0,0,0,91.634,81.8Zm0,0" transform="translate(-85.13 -75.133)" fill="#1e44ad"/>
    </g>
  </g>
</svg>
