<svg xmlns="http://www.w3.org/2000/svg" width="32" height="32" viewBox="0 0 32 32">
  <g id="Group_15969" data-name="Group 15969" transform="translate(-1140 -524)">
    <path id="Path_44041" data-name="Path 44041" d="M58.121,35H42.007A1.129,1.129,0,0,1,41,33.778V19.331C41,18.655,47.009,13,47.566,13H58.121a1.129,1.129,0,0,1,1.007,1.222V33.778A1.129,1.129,0,0,1,58.121,35Z" transform="translate(1111.871 520)" fill="#ffc093"/>
    <g id="_72-folder" data-name="72-folder" transform="translate(1140 524)">
      <path id="Path_44037" data-name="Path 44037" d="M31,5H14L10,1H1V27H9" fill="none" stroke="#1e44ad" stroke-linecap="round" stroke-linejoin="round" stroke-width="2"/>
      <line id="Line_109" data-name="Line 109" x1="6" transform="translate(8 5)" fill="none" stroke="#1e44ad" stroke-linecap="round" stroke-linejoin="round" stroke-width="2"/>
      <path id="Path_44038" data-name="Path 44038" d="M10,1h9l4,4" fill="none" stroke="#1e44ad" stroke-linecap="round" stroke-linejoin="round" stroke-width="2"/>
      <path id="Path_44039" data-name="Path 44039" d="M19,9H31V31H13V15Z" fill="none" stroke="#1e44ad" stroke-linecap="round" stroke-linejoin="round" stroke-width="2"/>
      <path id="Path_44040" data-name="Path 44040" d="M19,9v6H13" fill="none" stroke="#1e44ad" stroke-linecap="round" stroke-linejoin="round" stroke-width="2"/>
      <line id="Line_110" data-name="Line 110" x2="10" transform="translate(17 21)" fill="none" stroke="#1e44ad" stroke-linecap="round" stroke-linejoin="round" stroke-width="2"/>
      <line id="Line_111" data-name="Line 111" x2="10" transform="translate(17 25)" fill="none" stroke="#1e44ad" stroke-linecap="round" stroke-linejoin="round" stroke-width="2"/>
    </g>
  </g>
</svg>
