<svg xmlns="http://www.w3.org/2000/svg" width="36.646" height="40.572" viewBox="0 0 36.646 40.572">
  <g id="Group_15977" data-name="Group 15977" transform="translate(-211.38 -601.599)">
    <path id="Path_44144" data-name="Path 44144" d="M212.651,628.148v9.247l.585.665h31.988l1.331-1.084v-8.828h-9.4l-1.538,1.775L233.91,631.1h-3.066l-5.712-.429-1.874-.751-.673-1.775Z" transform="translate(0.13 2.72)" fill="#ffc093"/>
    <g id="noun_Folder_133981" transform="translate(211.38 601.599)">
      <g id="Group_15971" data-name="Group 15971" transform="translate(30.222 19.086)">
        <g id="Rectangle_13959" data-name="Rectangle 13959" transform="matrix(0.419, 0.908, -0.908, 0.419, 2.377, 0)" fill="#1e44ad" stroke="#fff" stroke-width="0.2">
          <rect width="9.37" height="2.618" stroke="none"/>
          <rect x="0.1" y="0.1" width="9.17" height="2.418" fill="none"/>
        </g>
      </g>
      <g id="Group_15972" data-name="Group 15972" transform="translate(0.12 19.082)">
        <g id="Rectangle_13960" data-name="Rectangle 13960" transform="translate(3.925) rotate(24.766)" fill="#1e44ad" stroke="#fff" stroke-width="0.2">
          <rect width="2.618" height="9.37" stroke="none"/>
          <rect x="0.1" y="0.1" width="2.418" height="9.17" fill="none"/>
        </g>
      </g>
      <g id="Group_15973" data-name="Group 15973" transform="translate(0 27.485)">
        <g id="Path_44140" data-name="Path 44140" transform="translate(-9 -51)" fill="#1e44ad">
          <path d="M 43.12792205810547 63.98786163330078 L 11.51810359954834 63.98786163330078 C 10.20735359191895 63.98786163330078 9.100003242492676 62.8349494934082 9.100003242492676 61.47029113769531 L 9.100003242492676 51.09999847412109 L 21.98786354064941 51.09999847412109 L 21.98786354064941 52.30878067016602 C 21.98786354064941 53.44643020629883 22.91340255737305 54.37197113037109 24.0510425567627 54.37197113037109 L 31.2493724822998 54.37197113037109 C 32.38701248168945 54.37197113037109 33.31255340576172 53.44643020629883 33.31255340576172 52.30878067016602 L 33.31255340576172 51.09999847412109 L 45.54602432250977 51.09999847412109 L 45.54602432250977 61.47029113769531 C 45.54602432250977 62.8349494934082 44.43867492675781 63.98786163330078 43.12792205810547 63.98786163330078 Z M 11.51757335662842 53.51757049560547 L 11.51757335662842 53.61756896972656 L 11.51757335662842 61.47029113769531 L 11.51757335662842 61.57028961181641 L 11.61757373809814 61.57028961181641 L 43.00685501098633 61.57028961181641 L 43.10662460327148 61.57028961181641 L 43.10685348510742 61.47052001953125 L 43.12517166137695 53.61780166625977 L 43.12540435791016 53.51757049560547 L 43.02517318725586 53.51757049560547 L 35.63969421386719 53.51757049560547 L 35.56518173217773 53.51757049560547 L 35.54387283325195 53.58897018432617 C 35.2738037109375 54.49380111694336 34.70751190185547 55.3083381652832 33.94931411743164 55.88254165649414 C 33.16581344604492 56.47589874267578 32.23219299316406 56.78953170776367 31.2493724822998 56.78953170776367 L 24.0510425567627 56.78953170776367 C 23.06822395324707 56.78953170776367 22.13460350036621 56.47589874267578 21.35110282897949 55.88254165649414 C 20.59290313720703 55.3083381652832 20.02661323547363 54.49380111694336 19.75654411315918 53.58897018432617 L 19.73523330688477 53.51757049560547 L 19.66072273254395 53.51757049560547 L 11.61757373809814 53.51757049560547 L 11.51757335662842 53.51757049560547 Z" stroke="none"/>
          <path d="M 43.12792205810547 63.88785934448242 C 44.38446426391602 63.88785934448242 45.44602203369141 62.7807502746582 45.44602203369141 61.47029113769531 L 45.44602203369141 51.20000076293945 L 33.41255187988281 51.20000076293945 L 33.41255187988281 52.30878067016602 C 33.41255187988281 53.50157165527344 32.44215393066406 54.47196960449219 31.2493724822998 54.47196960449219 L 24.0510425567627 54.47196960449219 C 22.85826301574707 54.47196960449219 21.88786315917969 53.50157165527344 21.88786315917969 52.30878067016602 L 21.88786315917969 51.20000076293945 L 9.200003623962402 51.20000076293945 L 9.200003623962402 61.47029113769531 C 9.200003623962402 62.7807502746582 10.26156330108643 63.88785934448242 11.51810359954834 63.88785934448242 L 43.12792205810547 63.88785934448242 M 11.41757297515869 53.41756820678711 L 19.80974388122559 53.41756820678711 L 19.85237312316895 53.56037139892578 C 20.40227317810059 55.40277099609375 22.12883377075195 56.68952941894531 24.0510425567627 56.68952941894531 L 31.2493724822998 56.68952941894531 C 33.17158508300781 56.68952941894531 34.89814376831055 55.40277099609375 35.44804382324219 53.56037139892578 L 35.49067306518555 53.41756820678711 L 43.22564315795898 53.41756820678711 L 43.20638275146484 61.67029190063477 L 11.41757297515869 61.67029190063477 L 11.41757297515869 53.41756820678711 M 43.12792205810547 64.08786010742188 L 11.51810359954834 64.08786010742188 C 10.15304374694824 64.08786010742188 9.000002861022949 62.88901901245117 9.000002861022949 61.47029113769531 L 9.000002861022949 51 L 22.08786392211914 51 L 22.08786392211914 52.30878067016602 C 22.08786392211914 53.39115142822266 22.96868324279785 54.27196884155273 24.0510425567627 54.27196884155273 L 31.2493724822998 54.27196884155273 C 32.33173370361328 54.27196884155273 33.21255493164062 53.39115142822266 33.21255493164062 52.30878067016602 L 33.21255493164062 51 L 45.64602279663086 51 L 45.64602279663086 61.47029113769531 C 45.64602279663086 62.88901901245117 44.49298477172852 64.08786010742188 43.12792205810547 64.08786010742188 Z M 11.61757373809814 53.61756896972656 L 11.61757373809814 61.47029113769531 L 43.00685501098633 61.47029113769531 L 43.02517318725586 53.61756896972656 L 35.63969421386719 53.61756896972656 C 35.07561492919922 55.50746154785156 33.32052230834961 56.88953018188477 31.2493724822998 56.88953018188477 L 24.0510425567627 56.88953018188477 C 21.97989273071289 56.88953018188477 20.22480392456055 55.50746154785156 19.66072273254395 53.61756896972656 L 11.61757373809814 53.61756896972656 Z" stroke="none" fill="#fff"/>
        </g>
      </g>
      <g id="Group_15974" data-name="Group 15974" transform="translate(7.853 0)">
        <g id="Path_44141" data-name="Path 44141" transform="translate(-21 -9)" fill="#1e44ad">
          <path d="M 41.84057998657227 12.82635974884033 L 39.42301177978516 12.82635974884033 L 39.42301177978516 11.61756992340088 L 39.42301177978516 11.51756954193115 L 39.3230094909668 11.51756954193115 L 23.6175708770752 11.51756954193115 L 23.51757049560547 11.51756954193115 L 23.51757049560547 11.61756992340088 L 23.51757049560547 12.82635974884033 L 21.10000038146973 12.82635974884033 L 21.10000038146973 9.09999942779541 L 41.84057998657227 9.09999942779541 L 41.84057998657227 12.82635974884033 Z" stroke="none"/>
          <path d="M 41.74058151245117 12.72635936737061 L 41.74058151245117 9.199999809265137 L 21.20000076293945 9.199999809265137 L 21.20000076293945 12.72635936737061 L 23.41757202148438 12.72635936737061 L 23.41757202148438 11.41756916046143 L 39.52301025390625 11.41756916046143 L 39.52301025390625 12.72635936737061 L 41.74058151245117 12.72635936737061 M 41.94058227539062 12.92635917663574 L 39.3230094909668 12.92635917663574 L 39.3230094909668 11.61756992340088 L 23.6175708770752 11.61756992340088 L 23.6175708770752 12.92635917663574 L 21.00000190734863 12.92635917663574 L 21.00000190734863 9 L 41.94058227539062 9 L 41.94058227539062 12.92635917663574 Z" stroke="none" fill="#fff"/>
        </g>
      </g>
      <g id="Group_15975" data-name="Group 15975" transform="translate(5.89 5.235)">
        <g id="Path_44142" data-name="Path 44142" transform="translate(-18 -17)" fill="#1e44ad">
          <path d="M 42.76694107055664 20.82636070251465 L 40.34937286376953 20.82636070251465 L 40.34937286376953 19.6175708770752 L 40.34937286376953 19.51757049560547 L 40.24937057495117 19.51757049560547 L 20.6175708770752 19.51757049560547 L 20.5175724029541 19.51757049560547 L 20.5175724029541 19.6175708770752 L 20.5175724029541 20.82636070251465 L 18.10000228881836 20.82636070251465 L 18.10000228881836 17.10000038146973 L 42.76694107055664 17.10000038146973 L 42.76694107055664 20.82636070251465 Z" stroke="none"/>
          <path d="M 42.66694259643555 20.72636032104492 L 42.66694259643555 17.20000076293945 L 18.20000076293945 17.20000076293945 L 18.20000076293945 20.72636032104492 L 20.41757202148438 20.72636032104492 L 20.41757202148438 19.41757011413574 L 40.44937133789062 19.41757011413574 L 40.44937133789062 20.72636032104492 L 42.66694259643555 20.72636032104492 M 42.866943359375 20.92636108398438 L 40.24937057495117 20.92636108398438 L 40.24937057495117 19.6175708770752 L 20.6175708770752 19.6175708770752 L 20.6175708770752 20.92636108398438 L 18.00000190734863 20.92636108398438 L 18.00000190734863 17 L 42.866943359375 17 L 42.866943359375 20.92636108398438 Z" stroke="none" fill="#fff"/>
        </g>
      </g>
      <g id="Group_15976" data-name="Group 15976" transform="translate(4.581 10.47)">
        <path id="Path_44143" data-name="Path 44143" d="M43.485,42.275H40.867V27.468H18.618V42.275H16V25H43.485Z" transform="translate(-16 -25)" fill="#1e44ad"/>
      </g>
    </g>
  </g>
</svg>
