<svg xmlns="http://www.w3.org/2000/svg" width="43.3" height="37.998" viewBox="0 0 43.3 37.998">
  <g id="Group_15966" data-name="Group 15966" transform="translate(-207.833 -620.002)">
    <path id="Path_44139" data-name="Path 44139" d="M1648.641,624.716H1645v26.531h12.079l2.621,1.093,3.1,2.339,2.567.769,2.313-.382,1.838-1.9,1.794-.829,1.743-.443,7.193-.65h4.8l.71-.783V624.716h-4.473l-.508,22.392-3.614-.746-5.4.746-4.075.767-2.313,2.59v.394l-3.518-2.985-4.285-1.513h-8.249V624.716Z" transform="translate(-1435.689 1.257)" fill="#ffc093"/>
    <g id="noun_Book_1195058" transform="translate(207.833 620.002)">
      <path id="Path_44130" data-name="Path 44130" d="M2.67,40.955H13.637a6.579,6.579,0,0,1,4.9,2.209l.155.163a5.541,5.541,0,0,0,.645.57c.093.066.181.133.265.186a5.611,5.611,0,0,0,.632.362l.11.053a3.532,3.532,0,0,0,.353.15,4.578,4.578,0,0,0,.464.146,4.1,4.1,0,0,0,.415.1,5.329,5.329,0,0,0,.725.093L22.65,45a5.51,5.51,0,0,0,1.087-.11,2.418,2.418,0,0,0,.323-.08,4.891,4.891,0,0,0,.539-.168h.053l.278-.119.08-.04h.027a5.541,5.541,0,0,0,.68-.389l.23-.159a5.585,5.585,0,0,0,.68-.65l.053-.053.093-.1a6.446,6.446,0,0,1,4.86-2.169h11a1.67,1.67,0,0,0,1.67-1.675V13.066a1.67,1.67,0,0,0-1.67-1.648h-3.3v-3.3A1.1,1.1,0,0,0,38.229,7H31.354a12.813,12.813,0,0,0-8.7,3.433A12.813,12.813,0,0,0,13.946,7H7.071a1.1,1.1,0,0,0-1.1,1.1v3.314H2.67A1.67,1.67,0,0,0,1,13.067V39.285a1.67,1.67,0,0,0,1.67,1.67ZM31.354,9.209h5.77V33.758h-5.77a12.787,12.787,0,0,0-7.6,2.51V12.448a10.573,10.573,0,0,1,7.6-3.239Zm-23.179,0h5.77a10.573,10.573,0,0,1,7.6,3.23h0V36.268a12.787,12.787,0,0,0-7.6-2.51H8.175ZM3.209,13.628H5.966V34.88a1.1,1.1,0,0,0,1.1,1.1h6.875a10.573,10.573,0,0,1,7.878,3.535,1.1,1.1,0,0,0,1.648,0,10.573,10.573,0,0,1,7.878-3.535h6.879a1.1,1.1,0,0,0,1.1-1.1V13.628h2.757V38.768H31.664a8.656,8.656,0,0,0-6.544,2.925l-.035.04-.04.04a3.376,3.376,0,0,1-.442.371l-.133.093a3.346,3.346,0,0,1-.4.23h-.027l-.066.031-.177.075a3.031,3.031,0,0,1-.331.1l-.19.044a3.3,3.3,0,0,1-.632.071h-.194a3.253,3.253,0,0,1-.442-.057.877.877,0,0,1-.256-.066,2.6,2.6,0,0,1-.274-.084l-.194-.084-.084-.04a3.385,3.385,0,0,1-.389-.221l-.155-.106a3.4,3.4,0,0,1-.4-.353l-.084-.088a8.788,8.788,0,0,0-6.544-2.943H3.209Z" transform="translate(-1 -7)" fill="#1e44ad"/>
      <path id="Path_44131" data-name="Path 44131" d="M22.915,21.894h1.834a10.564,10.564,0,0,1,4.657,1.091,1.1,1.1,0,0,0,.976-1.979,12.778,12.778,0,0,0-5.651-1.326H22.915a1.1,1.1,0,1,0,0,2.209Z" transform="translate(-12.615 -14.077)" fill="#1e44ad"/>
      <path id="Path_44132" data-name="Path 44132" d="M22.915,32.954h1.834a10.564,10.564,0,0,1,4.657,1.091,1.1,1.1,0,0,0,.976-1.979,12.778,12.778,0,0,0-5.651-1.326H22.915a1.1,1.1,0,1,0,0,2.209Z" transform="translate(-12.615 -20.251)" fill="#1e44ad"/>
      <path id="Path_44133" data-name="Path 44133" d="M22.915,44.014h1.834A10.564,10.564,0,0,1,29.405,45.1a1.1,1.1,0,0,0,.976-1.979A12.778,12.778,0,0,0,24.731,41.8H22.915a1.1,1.1,0,1,0,0,2.209Z" transform="translate(-12.615 -26.424)" fill="#1e44ad"/>
      <path id="Path_44134" data-name="Path 44134" d="M29.405,56.175a1.1,1.1,0,1,0,.976-1.979,12.774,12.774,0,0,0-5.651-1.326H22.915a1.1,1.1,0,1,0,0,2.209h1.834a10.564,10.564,0,0,1,4.657,1.1Z" transform="translate(-12.615 -32.603)" fill="#1e44ad"/>
      <path id="Path_44135" data-name="Path 44135" d="M58.292,23.105a1.1,1.1,0,0,0,.486-.115A10.573,10.573,0,0,1,63.457,21.9h1.834a1.1,1.1,0,1,0,0-2.209H63.457a12.734,12.734,0,0,0-4.418.782,12.9,12.9,0,0,0-1.255.539,1.1,1.1,0,0,0,.49,2.094Z" transform="translate(-32.352 -14.083)" fill="#1e44ad"/>
      <path id="Path_44136" data-name="Path 44136" d="M58.292,34.165a1.1,1.1,0,0,0,.486-.115,10.573,10.573,0,0,1,4.679-1.091h1.834a1.1,1.1,0,1,0,0-2.209H63.457a12.734,12.734,0,0,0-4.418.782,12.9,12.9,0,0,0-1.255.539,1.1,1.1,0,0,0,.49,2.094Z" transform="translate(-32.352 -20.256)" fill="#1e44ad"/>
      <path id="Path_44137" data-name="Path 44137" d="M58.292,45.225a1.1,1.1,0,0,0,.486-.115,10.573,10.573,0,0,1,4.679-1.091h1.834a1.1,1.1,0,1,0,0-2.209H63.457a12.734,12.734,0,0,0-4.418.782,12.9,12.9,0,0,0-1.255.539,1.1,1.1,0,0,0,.49,2.094Z" transform="translate(-32.352 -26.429)" fill="#1e44ad"/>
      <path id="Path_44138" data-name="Path 44138" d="M58.292,56.291a1.1,1.1,0,0,0,.486-.115,10.578,10.578,0,0,1,4.679-1.087h1.834a1.1,1.1,0,1,0,0-2.209H63.457a12.725,12.725,0,0,0-4.418.782,12.9,12.9,0,0,0-1.255.539,1.1,1.1,0,0,0,.49,2.094Z" transform="translate(-32.352 -32.608)" fill="#1e44ad"/>
    </g>
  </g>
</svg>
