<svg xmlns="http://www.w3.org/2000/svg" width="35.499" height="42.951" viewBox="0 0 35.499 42.951">
  <g id="Group_15979" data-name="Group 15979" transform="translate(-211.677 -601.405)">
    <path id="Path_44152" data-name="Path 44152" d="M218.387,607.924h-5.128l-.743,1.49.1,31.709.5,1.119.633.4h24.4l.894-.4.662-.915V636.1l-19.388.211-1.276-.579-.431-1.556V610.284Z" transform="translate(0.102 0.793)" fill="#ffc093"/>
    <g id="noun_report_2120955" transform="translate(211.677 601.405)">
      <g id="Group_15978" data-name="Group 15978" transform="translate(0 0)">
        <path id="Path_44145" data-name="Path 44145" d="M43.805,2.5H19.417a2.41,2.41,0,0,0-2.394,2.394V8.823H13.094A2.41,2.41,0,0,0,10.7,11.217v31.84a2.41,2.41,0,0,0,2.394,2.394H37.482a2.41,2.41,0,0,0,2.394-2.394V39.128h3.929A2.41,2.41,0,0,0,46.2,36.734V4.894A2.44,2.44,0,0,0,43.805,2.5ZM37.934,43.012a.417.417,0,0,1-.452.406H13.094a.4.4,0,0,1-.406-.406V11.171a.4.4,0,0,1,.406-.406h3.929V36.734a2.41,2.41,0,0,0,2.394,2.394H37.934Zm6.278-6.278a.453.453,0,0,1-.452.452H19.417a.453.453,0,0,1-.452-.452V4.894a.453.453,0,0,1,.452-.452H43.805a.453.453,0,0,1,.452.452v31.84Z" transform="translate(-10.7 -2.5)" fill="#1e44ad"/>
        <path id="Path_44146" data-name="Path 44146" d="M54.191,53.2h-14.5a.994.994,0,1,0,0,1.987h14.5a.994.994,0,0,0,0-1.987Z" transform="translate(-26.054 -30.302)" fill="#1e44ad"/>
        <path id="Path_44147" data-name="Path 44147" d="M54.191,66.2h-14.5a.994.994,0,0,0,0,1.987h14.5a.994.994,0,0,0,0-1.987Z" transform="translate(-26.054 -37.431)" fill="#1e44ad"/>
        <path id="Path_44148" data-name="Path 44148" d="M54.191,40.3h-14.5a.994.994,0,1,0,0,1.987h14.5a1,1,0,0,0,.994-.994A.974.974,0,0,0,54.191,40.3Z" transform="translate(-26.054 -23.228)" fill="#1e44ad"/>
        <path id="Path_44149" data-name="Path 44149" d="M44.261,27.723h1.761a.356.356,0,0,0,.361-.361v-2.8a.356.356,0,0,0-.361-.361H44.261a.356.356,0,0,0-.361.361v2.8A.389.389,0,0,0,44.261,27.723Z" transform="translate(-28.906 -14.399)" fill="#1e44ad"/>
        <path id="Path_44150" data-name="Path 44150" d="M53.961,25.255h1.761a.356.356,0,0,0,.361-.361V20.061a.356.356,0,0,0-.361-.361H53.961a.356.356,0,0,0-.361.361v4.787A.4.4,0,0,0,53.961,25.255Z" transform="translate(-34.225 -11.932)" fill="#1e44ad"/>
        <path id="Path_44151" data-name="Path 44151" d="M63.661,22.9h1.761a.356.356,0,0,0,.361-.361V15.761a.389.389,0,0,0-.361-.361H63.661a.356.356,0,0,0-.361.361v6.775A.389.389,0,0,0,63.661,22.9Z" transform="translate(-39.544 -9.574)" fill="#1e44ad"/>
      </g>
    </g>
  </g>
</svg>
