<svg xmlns="http://www.w3.org/2000/svg" xmlns:xlink="http://www.w3.org/1999/xlink" width="28.08" height="29" viewBox="0 0 28.08 29"><defs><style>.a{fill:#fff;}.b{clip-path:url(#a);}</style><clipPath id="a"><rect class="a" width="27.55" height="29"/></clipPath></defs><g transform="translate(-129.366 -253.726)"><path class="a" d="M274,284.07v9.154h9.154A9.687,9.687,0,0,0,274,284.07Zm0,0" transform="translate(-132.855 -27.544)"/><g transform="translate(129.366 253.726)"><g class="b" transform="translate(0 0)"><path class="a" d="M183.986,427.89h-9.454l-6.673,6.673a9.66,9.66,0,0,0,16.127-6.673Zm0,0" transform="translate(-165.09 -412.881)"/><path class="a" d="M139.166,308.07a9.66,9.66,0,0,0-6.673,16.127l6.673-6.673Zm0,0" transform="translate(-130.442 -303.233)"/></g></g><path class="a" d="M412.509,266.217h3.357L412,262.351v3.357a.51.51,0,0,0,.509.509Zm0,0" transform="translate(-259.139 -7.669)"/><path class="a" d="M361.563,481.89a3.566,3.566,0,1,0,3.566,3.566,3.567,3.567,0,0,0-3.566-3.566Zm-.659,5.454a.509.509,0,0,1-.72,0l-1.528-1.528.72-.72,1.168,1.168,2.7-2.7.72.72Zm0,0" transform="translate(-209.721 -208.57)"/><path class="a" d="M264.263,259.493a1.533,1.533,0,0,1-1.528-1.528V253.89H250.509a.51.51,0,0,0-.509.509v13.244h9.678a.51.51,0,0,1,.509.509A10.7,10.7,0,0,1,250,278.824v3.082a.51.51,0,0,0,.509.509h17.319a.51.51,0,0,0,.509-.509V259.493Zm-12.735,7.131a.51.51,0,0,1-.509-.509V255.927a.51.51,0,0,1,.509-.509,10.709,10.709,0,0,1,10.7,10.7.51.51,0,0,1-.509.509ZM262.735,281.4a4.584,4.584,0,1,1,4.584-4.584,4.585,4.585,0,0,1-4.584,4.584Zm4.584-12.734h-4.075v-1.019h4.075Zm0-3.056h-4.075v-1.019h4.075Zm0-3.056h-4.075v-1.019h4.075Zm0,0" transform="translate(-110.892 0.074)"/></g></svg>