<svg xmlns="http://www.w3.org/2000/svg" width="22.837" height="27" viewBox="0 0 22.837 27"><defs><style>.a{fill:#fff;}</style></defs><path class="a" d="M13.322,7.172V0H1.427A1.35,1.35,0,0,0,0,1.266V25.734A1.35,1.35,0,0,0,1.427,27H21.41a1.35,1.35,0,0,0,1.427-1.266V8.437H14.749A1.358,1.358,0,0,1,13.322,7.172Zm3.806,12.445a.679.679,0,0,1-.714.633H6.423a.679.679,0,0,1-.714-.633v-.422a.679.679,0,0,1,.714-.633h9.991a.679.679,0,0,1,.714.633Zm0-3.375a.679.679,0,0,1-.714.633H6.423a.679.679,0,0,1-.714-.633V15.82a.679.679,0,0,1,.714-.633h9.991a.679.679,0,0,1,.714.633Zm0-3.8v.422a.679.679,0,0,1-.714.633H6.423a.679.679,0,0,1-.714-.633v-.422a.679.679,0,0,1,.714-.633h9.991A.679.679,0,0,1,17.128,12.445Zm5.709-6.017V6.75H15.225V0h.363A1.524,1.524,0,0,1,16.6.369l5.822,5.168A1.194,1.194,0,0,1,22.837,6.428Z"/></svg>