<svg xmlns="http://www.w3.org/2000/svg" xmlns:xlink="http://www.w3.org/1999/xlink" width="15.634" height="16.146" viewBox="0 0 15.634 16.146"><defs><style>.a{clip-path:url(#a);}</style><clipPath id="a"><rect width="15.339" height="16.146"/></clipPath></defs><g transform="translate(-129.366 -253.726)"><path d="M274,284.07v5.1h5.1a5.393,5.393,0,0,0-5.1-5.1Zm0,0" transform="translate(-138.076 -28.785)"/><g transform="translate(129.366 253.726)"><g class="a" transform="translate(0 0)"><path d="M176.838,427.89h-5.264l-3.715,3.715a5.378,5.378,0,0,0,8.979-3.715Zm0,0" transform="translate(-166.317 -419.533)"/><path d="M135.1,308.07a5.378,5.378,0,0,0-3.715,8.979l3.715-3.715Zm0,0" transform="translate(-130.245 -305.377)"/></g></g><path d="M412.284,264.5h1.869L412,262.351v1.869a.284.284,0,0,0,.284.284Zm0,0" transform="translate(-269.553 -8.093)"/><path d="M359.983,481.89a1.985,1.985,0,1,0,1.985,1.985,1.986,1.986,0,0,0-1.985-1.985Zm-.367,3.037a.284.284,0,0,1-.4,0l-.851-.851.4-.4.65.65,1.5-1.5.4.4Zm0,0" transform="translate(-218.103 -217.255)"/><path d="M257.941,257.01a.853.853,0,0,1-.851-.851V253.89h-6.807a.284.284,0,0,0-.284.284v7.374h5.389a.284.284,0,0,1,.284.284A5.96,5.96,0,0,1,250,267.773v1.716a.284.284,0,0,0,.284.284h9.643a.284.284,0,0,0,.284-.284V257.01Zm-7.09,3.97a.284.284,0,0,1-.284-.284v-5.672a.284.284,0,0,1,.284-.284,5.962,5.962,0,0,1,5.956,5.956.284.284,0,0,1-.284.284Zm6.239,8.225a2.553,2.553,0,1,1,2.552-2.552,2.553,2.553,0,0,1-2.552,2.552Zm2.552-7.09h-2.269v-.567h2.269Zm0-1.7h-2.269v-.567h2.269Zm0-1.7h-2.269v-.567h2.269Zm0,0" transform="translate(-115.21 -0.032)"/></g></svg>