<svg xmlns="http://www.w3.org/2000/svg" width="15.079" height="16.426" viewBox="0 0 15.079 16.426"><g transform="translate(-97.547 -241.393)"><path d="M167.134,368.989a2.01,2.01,0,0,0,.452-.118c1.186-.628,2.366-1.268,3.548-1.9.131-.071.26-.147.4-.209a.711.711,0,0,1,.981.279.684.684,0,0,1-.317.966c-.7.394-1.4.768-2.105,1.151-.6.324-1.194.643-1.781.981-.107.061-.168.2-.25.308a1.089,1.089,0,0,0,.416-.027c.854-.443,1.7-.906,2.547-1.359a.669.669,0,0,1,.884.151.65.65,0,0,1,.079.827.96.96,0,0,1-.359.317q-2.689,1.439-5.387,2.863c-2.359,1.25-4.69-.7-5.121-2.674a5.282,5.282,0,0,1,.1-2.453c.326-1.3.639-2.6.953-3.909a.769.769,0,0,1,.85-.683c.415.074.635.423.545.935-.108.613-.271,1.218-.363,1.833a.846.846,0,0,0,.141.645c.1.095.433.039.608-.054,1.883-.991,3.755-2,5.631-3.009a2.272,2.272,0,0,1,.478-.219.732.732,0,0,1,.842.41.689.689,0,0,1-.338.864c-.663.371-1.336.721-2,1.081s-1.318.7-1.967,1.065c-.117.066-.187.216-.279.327a1.159,1.159,0,0,0,.427-.039c1.557-.825,3.107-1.664,4.659-2.5.119-.064.237-.132.36-.188a.707.707,0,1,1,.674,1.242c-.335.2-.687.381-1.034.567q-1.97,1.058-3.941,2.117a4.115,4.115,0,0,0-.382.263Zm-2.364,3.78a6.49,6.49,0,0,0,.765-.228c.079-.035.11-.178.163-.272-.094-.01-.2-.054-.279-.023a1.233,1.233,0,0,1-1.364-.207c-.059-.051-.18-.031-.273-.043.022.1.012.243.07.278C164.167,372.464,164.5,372.626,164.77,372.769Z" transform="translate(-60.192 -115.789)"/><path d="M101.262,346.3c-.227.9-.479,1.738-.649,2.6a4.468,4.468,0,0,0,.976,3.918c.042.05.076.108.15.215a2.985,2.985,0,0,1-1.655-.094,3.894,3.894,0,0,1-2.519-3.921,6.9,6.9,0,0,1,.5-1.906c.535-1.273,1.145-2.513,1.737-3.762a1.228,1.228,0,0,1,.357-.473.637.637,0,0,1,.828.041.677.677,0,0,1,.21.809c-.242.6-.515,1.195-.739,1.8a.988.988,0,0,0-.036.672c.123.27.415.164.653.1A1,1,0,0,1,101.262,346.3Z" transform="translate(0 -96.118)"/><path d="M237.323,241.393c.668,1.168,1.565,2.237,1.7,3.65a1.607,1.607,0,0,1-1,1.631,1.652,1.652,0,0,1-1.868-.2,1.549,1.549,0,0,1-.634-1.792,23.963,23.963,0,0,1,1.1-2.381c.154-.312.363-.6.547-.893Zm-.835,3.538a4.968,4.968,0,0,0,.254.568c.039.067.173.079.263.116a1.435,1.435,0,0,0,.012-.286c-.035-.231-.093-.458-.128-.688-.021-.139-.018-.281-.025-.422a3.56,3.56,0,0,0-.3.369A1.217,1.217,0,0,0,236.488,244.931Z" transform="translate(-130.77)"/><path d="M208.775,376.011c.088-.431.161-.866.276-1.29.026-.1.188-.184.3-.22,1.186-.371,2.373-.739,3.566-1.086a2.311,2.311,0,0,1,.622-.008l.024.15-4.7,2.532Z" transform="translate(-105.487 -125.182)"/><path d="M215.619,529.18c-.272-.143-.6-.3-.917-.494-.058-.035-.049-.182-.07-.278.092.013.214-.008.273.043a1.233,1.233,0,0,0,1.364.207c.078-.031.185.013.279.023-.053.094-.084.237-.163.272A6.5,6.5,0,0,1,215.619,529.18Z" transform="translate(-111.041 -272.2)"/><path d="M255.843,296.855a1.219,1.219,0,0,1,.073-.343,3.55,3.55,0,0,1,.3-.369c.008.141,0,.283.025.422.035.231.093.458.128.688a1.433,1.433,0,0,1-.012.286c-.09-.037-.224-.049-.263-.116A4.977,4.977,0,0,1,255.843,296.855Z" transform="translate(-150.125 -51.924)"/></g></svg>