<svg xmlns="http://www.w3.org/2000/svg" xmlns:xlink="http://www.w3.org/1999/xlink" width="206.309" height="16.146" viewBox="0 0 206.309 16.146"><defs><style>.a{font-size:12px;font-family:Roboto-Medium, Roboto;font-weight:500;}.b{fill:red;}.c{clip-path:url(#a);}</style><clipPath id="a"><rect width="15.339" height="16.146"/></clipPath></defs><g transform="translate(-9 -286)"><text class="a" transform="translate(126 298)"><tspan x="-91.172" y="0">Annual Accounts</tspan></text><path class="b" d="M8.529,3.375a5.154,5.154,0,1,0,5.154,5.154A5.153,5.153,0,0,0,8.529,3.375ZM9.835,10.4,8.529,9.089,7.223,10.4a.4.4,0,1,1-.56-.56L7.969,8.529,6.663,7.223a.4.4,0,0,1,.56-.56L8.529,7.969,9.835,6.663a.4.4,0,1,1,.56.56L9.089,8.529,10.4,9.835a.4.4,0,0,1,0,.56A.393.393,0,0,1,9.835,10.4Z" transform="translate(201.625 285.625)"/><g transform="translate(-120.366 32.274)"><path d="M274,284.07v5.1h5.1a5.393,5.393,0,0,0-5.1-5.1Zm0,0" transform="translate(-138.076 -28.785)"/><g transform="translate(129.366 253.726)"><g class="c" transform="translate(0 0)"><path d="M176.838,427.89h-5.264l-3.715,3.715a5.378,5.378,0,0,0,8.979-3.715Zm0,0" transform="translate(-166.317 -419.533)"/><path d="M135.1,308.07a5.378,5.378,0,0,0-3.715,8.979l3.715-3.715Zm0,0" transform="translate(-130.245 -305.377)"/></g></g><path d="M412.284,264.5h1.869L412,262.351v1.869a.284.284,0,0,0,.284.284Zm0,0" transform="translate(-269.553 -8.093)"/><path d="M359.983,481.89a1.985,1.985,0,1,0,1.985,1.985,1.986,1.986,0,0,0-1.985-1.985Zm-.367,3.037a.284.284,0,0,1-.4,0l-.851-.851.4-.4.65.65,1.5-1.5.4.4Zm0,0" transform="translate(-218.103 -217.255)"/><path d="M257.941,257.01a.853.853,0,0,1-.851-.851V253.89h-6.807a.284.284,0,0,0-.284.284v7.374h5.389a.284.284,0,0,1,.284.284A5.96,5.96,0,0,1,250,267.773v1.716a.284.284,0,0,0,.284.284h9.643a.284.284,0,0,0,.284-.284V257.01Zm-7.09,3.97a.284.284,0,0,1-.284-.284v-5.672a.284.284,0,0,1,.284-.284,5.962,5.962,0,0,1,5.956,5.956.284.284,0,0,1-.284.284Zm6.239,8.225a2.553,2.553,0,1,1,2.552-2.552,2.553,2.553,0,0,1-2.552,2.552Zm2.552-7.09h-2.269v-.567h2.269Zm0-1.7h-2.269v-.567h2.269Zm0-1.7h-2.269v-.567h2.269Zm0,0" transform="translate(-115.21 -0.032)"/></g></g></svg>