<svg xmlns="http://www.w3.org/2000/svg" width="23" height="23" viewBox="0 0 23 23"><defs><style>.a{fill:#fff;}</style></defs><path class="a" d="M20.6,11.5l2.066-2.022a1.07,1.07,0,0,0-.479-1.812l-2.814-.718.793-2.786a1.088,1.088,0,0,0-1.332-1.333l-2.785.794L15.333.8A1.078,1.078,0,0,0,13.521.325L11.5,2.406,9.479.325A1.078,1.078,0,0,0,7.668.8L6.95,3.619,4.165,2.826A1.088,1.088,0,0,0,2.832,4.159l.793,2.786L.811,7.663A1.07,1.07,0,0,0,.332,9.475L2.4,11.5.332,13.518A1.07,1.07,0,0,0,.811,15.33l2.814.718-.793,2.786a1.088,1.088,0,0,0,1.332,1.333l2.785-.794.718,2.815a1.068,1.068,0,0,0,1.811.479L11.5,20.6l2.021,2.066a1.073,1.073,0,0,0,1.811-.479l.718-2.815,2.785.794a1.088,1.088,0,0,0,1.332-1.333l-.793-2.786,2.814-.718a1.07,1.07,0,0,0,.479-1.812L20.6,11.5Z" transform="translate(0 0)"/></svg>