<svg xmlns="http://www.w3.org/2000/svg" width="17.5" height="14" viewBox="0 0 17.5 14"><path d="M17.5,7.219V6.781a.437.437,0,0,0-.437-.438H9.406V5.25h1.969a.875.875,0,0,0,.875-.875V.875A.875.875,0,0,0,11.375,0H6.125A.875.875,0,0,0,5.25.875v3.5a.875.875,0,0,0,.875.875H8.094V6.344H.438A.437.437,0,0,0,0,6.781v.438a.437.437,0,0,0,.438.438H3.281V8.75H1.75a.875.875,0,0,0-.875.875v3.5A.875.875,0,0,0,1.75,14H6.125A.875.875,0,0,0,7,13.125v-3.5a.875.875,0,0,0-.875-.875H4.594V7.656h8.313V8.75H11.375a.875.875,0,0,0-.875.875v3.5a.875.875,0,0,0,.875.875H15.75a.875.875,0,0,0,.875-.875v-3.5a.875.875,0,0,0-.875-.875H14.219V7.656h2.844A.437.437,0,0,0,17.5,7.219ZM7,3.5V1.75h3.5V3.5ZM5.25,12.25H2.625V10.5H5.25Zm9.625,0H12.25V10.5h2.625Z"/></svg>