<svg xmlns="http://www.w3.org/2000/svg" width="14.81" height="14.81" viewBox="0 0 14.81 14.81"><path d="M13.266,7.4,14.6,6.1a.689.689,0,0,0-.308-1.167l-1.812-.463.511-1.794a.7.7,0,0,0-.858-.858l-1.793.511L9.873.518A.694.694,0,0,0,8.706.209l-1.3,1.34L6.1.209A.694.694,0,0,0,4.937.518L4.475,2.33,2.682,1.819a.7.7,0,0,0-.858.858l.511,1.794L.522,4.934A.689.689,0,0,0,.214,6.1l1.33,1.3L.214,8.7A.689.689,0,0,0,.522,9.871l1.812.463-.511,1.794a.7.7,0,0,0,.858.858l1.793-.511.462,1.813A.688.688,0,0,0,6.1,14.6l1.3-1.331,1.3,1.331a.691.691,0,0,0,1.166-.309l.462-1.813,1.793.511a.7.7,0,0,0,.858-.858l-.511-1.794,1.812-.463A.689.689,0,0,0,14.6,8.7l-1.33-1.3Z" transform="translate(0 0)"/></svg>