<svg xmlns="http://www.w3.org/2000/svg" width="13.165" height="15.564" viewBox="0 0 13.165 15.564"><path d="M7.679,4.134V0H.823A.779.779,0,0,0,0,.73V14.835a.779.779,0,0,0,.823.73H12.342a.779.779,0,0,0,.823-.73V4.864H8.5A.783.783,0,0,1,7.679,4.134Zm2.194,7.174a.391.391,0,0,1-.411.365H3.7a.391.391,0,0,1-.411-.365v-.243A.391.391,0,0,1,3.7,10.7h5.76a.391.391,0,0,1,.411.365Zm0-1.946a.391.391,0,0,1-.411.365H3.7a.391.391,0,0,1-.411-.365V9.12A.391.391,0,0,1,3.7,8.755h5.76a.391.391,0,0,1,.411.365Zm0-2.189v.243a.391.391,0,0,1-.411.365H3.7a.391.391,0,0,1-.411-.365V7.174A.391.391,0,0,1,3.7,6.809h5.76A.391.391,0,0,1,9.874,7.174Zm3.291-3.469v.185H8.777V0h.209a.879.879,0,0,1,.583.213l3.356,2.979A.688.688,0,0,1,13.165,3.706Z"/></svg>