<svg xmlns="http://www.w3.org/2000/svg" width="15.078" height="10.555" viewBox="0 0 15.078 10.555"><defs><style>.a{fill:#fff;}</style></defs><path class="a" d="M0,12.051a.754.754,0,0,0,.754.754H14.325a.754.754,0,0,0,.754-.754V4.512H0Zm10.555-4.9a.377.377,0,0,1,.377-.377h2.262a.377.377,0,0,1,.377.377V7.9a.377.377,0,0,1-.377.377H10.932a.377.377,0,0,1-.377-.377Zm0,2.827a.188.188,0,0,1,.188-.188h2.639a.188.188,0,0,1,.188.188v.377a.188.188,0,0,1-.188.188H10.743a.188.188,0,0,1-.188-.188ZM1.508,7.716A.188.188,0,0,1,1.7,7.527H8.859a.188.188,0,0,1,.188.188v.377a.188.188,0,0,1-.188.188H1.7a.188.188,0,0,1-.188-.188Zm0,2.262A.188.188,0,0,1,1.7,9.789H5.843a.188.188,0,0,1,.188.188v.377a.188.188,0,0,1-.188.188H1.7a.188.188,0,0,1-.188-.188ZM14.7,2.25H.377A.377.377,0,0,0,0,2.627V3.758H15.078V2.627A.377.377,0,0,0,14.7,2.25Z" transform="translate(0 -2.25)"/></svg>