<svg xmlns="http://www.w3.org/2000/svg" width="34.75" height="28" viewBox="0 0 34.75 28"><defs><style>.a{fill:#fff;stroke:#73c557;}</style></defs><path class="a" d="M33.75,13.922v-.844a.844.844,0,0,0-.844-.844H18.141V10.125h3.8a1.688,1.688,0,0,0,1.688-1.688V1.688A1.688,1.688,0,0,0,21.938,0H11.813a1.688,1.688,0,0,0-1.688,1.688v6.75a1.688,1.688,0,0,0,1.688,1.688h3.8v2.109H.844A.844.844,0,0,0,0,13.078v.844a.844.844,0,0,0,.844.844H6.328v2.109H3.375a1.688,1.688,0,0,0-1.688,1.688v6.75A1.688,1.688,0,0,0,3.375,27h8.438A1.688,1.688,0,0,0,13.5,25.313v-6.75a1.688,1.688,0,0,0-1.688-1.688H8.859V14.766H24.891v2.109H21.938a1.688,1.688,0,0,0-1.688,1.688v6.75A1.688,1.688,0,0,0,21.938,27h8.438a1.688,1.688,0,0,0,1.688-1.688v-6.75a1.688,1.688,0,0,0-1.688-1.688H27.422V14.766h5.484A.844.844,0,0,0,33.75,13.922ZM13.5,6.75V3.375h6.75V6.75ZM10.125,23.625H5.063V20.25h5.063Zm18.563,0H23.625V20.25h5.063Z" transform="translate(0.5 0.5)"/></svg>