<svg xmlns="http://www.w3.org/2000/svg" width="29.523" height="20.666" viewBox="0 0 29.523 20.666"><defs><style>.a{fill:#fff;}</style></defs><path class="a" d="M0,21.44a1.476,1.476,0,0,0,1.476,1.476H28.047a1.476,1.476,0,0,0,1.476-1.476V6.678H0Zm20.666-9.595a.738.738,0,0,1,.738-.738h4.428a.738.738,0,0,1,.738.738v1.476a.738.738,0,0,1-.738.738H21.4a.738.738,0,0,1-.738-.738Zm0,5.536a.369.369,0,0,1,.369-.369H26.2a.369.369,0,0,1,.369.369v.738a.369.369,0,0,1-.369.369H21.035a.369.369,0,0,1-.369-.369ZM2.952,12.952a.369.369,0,0,1,.369-.369H17.345a.369.369,0,0,1,.369.369v.738a.369.369,0,0,1-.369.369H3.321a.369.369,0,0,1-.369-.369Zm0,4.428a.369.369,0,0,1,.369-.369H11.44a.369.369,0,0,1,.369.369v.738a.369.369,0,0,1-.369.369H3.321a.369.369,0,0,1-.369-.369ZM28.785,2.25H.738A.738.738,0,0,0,0,2.988V5.2H29.523V2.988A.738.738,0,0,0,28.785,2.25Z" transform="translate(0 -2.25)"/></svg>